%TF.GenerationSoftware,KiCad,Pcbnew,8.0.5-8.0.5-0~ubuntu22.04.1*%
%TF.CreationDate,2024-10-15T18:40:31+03:00*%
%TF.ProjectId,sc,73632e6b-6963-4616-945f-706362585858,rev?*%
%TF.SameCoordinates,Original*%
%TF.FileFunction,Copper,L1,Top*%
%TF.FilePolarity,Positive*%
%FSLAX46Y46*%
G04 Gerber Fmt 4.6, Leading zero omitted, Abs format (unit mm)*
G04 Created by KiCad (PCBNEW 8.0.5-8.0.5-0~ubuntu22.04.1) date 2024-10-15 18:40:31*
%MOMM*%
%LPD*%
G01*
G04 APERTURE LIST*
G04 Aperture macros list*
%AMRoundRect*
0 Rectangle with rounded corners*
0 $1 Rounding radius*
0 $2 $3 $4 $5 $6 $7 $8 $9 X,Y pos of 4 corners*
0 Add a 4 corners polygon primitive as box body*
4,1,4,$2,$3,$4,$5,$6,$7,$8,$9,$2,$3,0*
0 Add four circle primitives for the rounded corners*
1,1,$1+$1,$2,$3*
1,1,$1+$1,$4,$5*
1,1,$1+$1,$6,$7*
1,1,$1+$1,$8,$9*
0 Add four rect primitives between the rounded corners*
20,1,$1+$1,$2,$3,$4,$5,0*
20,1,$1+$1,$4,$5,$6,$7,0*
20,1,$1+$1,$6,$7,$8,$9,0*
20,1,$1+$1,$8,$9,$2,$3,0*%
G04 Aperture macros list end*
%TA.AperFunction,SMDPad,CuDef*%
%ADD10R,0.800000X1.000000*%
%TD*%
%TA.AperFunction,SMDPad,CuDef*%
%ADD11R,1.500000X0.700000*%
%TD*%
%TA.AperFunction,SMDPad,CuDef*%
%ADD12RoundRect,0.225000X0.225000X0.250000X-0.225000X0.250000X-0.225000X-0.250000X0.225000X-0.250000X0*%
%TD*%
%TA.AperFunction,SMDPad,CuDef*%
%ADD13RoundRect,0.135000X-0.135000X-0.185000X0.135000X-0.185000X0.135000X0.185000X-0.135000X0.185000X0*%
%TD*%
%TA.AperFunction,SMDPad,CuDef*%
%ADD14RoundRect,0.140000X-0.170000X0.140000X-0.170000X-0.140000X0.170000X-0.140000X0.170000X0.140000X0*%
%TD*%
%TA.AperFunction,SMDPad,CuDef*%
%ADD15RoundRect,0.140000X0.140000X0.170000X-0.140000X0.170000X-0.140000X-0.170000X0.140000X-0.170000X0*%
%TD*%
%TA.AperFunction,ComponentPad*%
%ADD16R,1.700000X1.700000*%
%TD*%
%TA.AperFunction,ComponentPad*%
%ADD17O,1.700000X1.700000*%
%TD*%
%TA.AperFunction,SMDPad,CuDef*%
%ADD18RoundRect,0.135000X0.185000X-0.135000X0.185000X0.135000X-0.185000X0.135000X-0.185000X-0.135000X0*%
%TD*%
%TA.AperFunction,SMDPad,CuDef*%
%ADD19RoundRect,0.375000X-0.375000X0.625000X-0.375000X-0.625000X0.375000X-0.625000X0.375000X0.625000X0*%
%TD*%
%TA.AperFunction,SMDPad,CuDef*%
%ADD20RoundRect,0.500000X-1.400000X0.500000X-1.400000X-0.500000X1.400000X-0.500000X1.400000X0.500000X0*%
%TD*%
%TA.AperFunction,SMDPad,CuDef*%
%ADD21RoundRect,0.250000X0.475000X-0.250000X0.475000X0.250000X-0.475000X0.250000X-0.475000X-0.250000X0*%
%TD*%
%TA.AperFunction,SMDPad,CuDef*%
%ADD22RoundRect,0.140000X-0.140000X-0.170000X0.140000X-0.170000X0.140000X0.170000X-0.140000X0.170000X0*%
%TD*%
%TA.AperFunction,SMDPad,CuDef*%
%ADD23RoundRect,0.218750X0.256250X-0.218750X0.256250X0.218750X-0.256250X0.218750X-0.256250X-0.218750X0*%
%TD*%
%TA.AperFunction,SMDPad,CuDef*%
%ADD24R,1.200000X1.400000*%
%TD*%
%TA.AperFunction,SMDPad,CuDef*%
%ADD25RoundRect,0.135000X-0.185000X0.135000X-0.185000X-0.135000X0.185000X-0.135000X0.185000X0.135000X0*%
%TD*%
%TA.AperFunction,SMDPad,CuDef*%
%ADD26RoundRect,0.140000X0.170000X-0.140000X0.170000X0.140000X-0.170000X0.140000X-0.170000X-0.140000X0*%
%TD*%
%TA.AperFunction,SMDPad,CuDef*%
%ADD27RoundRect,0.075000X-0.662500X-0.075000X0.662500X-0.075000X0.662500X0.075000X-0.662500X0.075000X0*%
%TD*%
%TA.AperFunction,SMDPad,CuDef*%
%ADD28RoundRect,0.075000X-0.075000X-0.662500X0.075000X-0.662500X0.075000X0.662500X-0.075000X0.662500X0*%
%TD*%
%TA.AperFunction,SMDPad,CuDef*%
%ADD29R,1.300000X0.450000*%
%TD*%
%TA.AperFunction,ComponentPad*%
%ADD30O,1.800000X1.150000*%
%TD*%
%TA.AperFunction,ComponentPad*%
%ADD31O,2.000000X1.450000*%
%TD*%
%TA.AperFunction,SMDPad,CuDef*%
%ADD32RoundRect,0.250000X-0.250000X-0.475000X0.250000X-0.475000X0.250000X0.475000X-0.250000X0.475000X0*%
%TD*%
%TA.AperFunction,ViaPad*%
%ADD33C,0.700000*%
%TD*%
%TA.AperFunction,Conductor*%
%ADD34C,0.300000*%
%TD*%
%TA.AperFunction,Conductor*%
%ADD35C,0.500000*%
%TD*%
G04 APERTURE END LIST*
D10*
%TO.P,SW1,*%
%TO.N,*%
X119110000Y-72350000D03*
X116900000Y-72350000D03*
X119110000Y-79650000D03*
X116900000Y-79650000D03*
D11*
%TO.P,SW1,1,A*%
%TO.N,GND*%
X119760000Y-73750000D03*
%TO.P,SW1,2,B*%
%TO.N,/SW_BOOT0*%
X119760000Y-76750000D03*
%TO.P,SW1,3,C*%
%TO.N,+3.3V*%
X119760000Y-78250000D03*
%TD*%
D12*
%TO.P,C5,1*%
%TO.N,+3.3V*%
X138050000Y-90500000D03*
%TO.P,C5,2*%
%TO.N,GND*%
X136500000Y-90500000D03*
%TD*%
D13*
%TO.P,R4,1*%
%TO.N,+3.3V*%
X139980000Y-91500000D03*
%TO.P,R4,2*%
%TO.N,/I2C2_SCL*%
X141000000Y-91500000D03*
%TD*%
D14*
%TO.P,C4,1*%
%TO.N,+3.3V*%
X128500000Y-80540000D03*
%TO.P,C4,2*%
%TO.N,GND*%
X128500000Y-81500000D03*
%TD*%
D15*
%TO.P,C7,1*%
%TO.N,+3.3VA*%
X129960000Y-90000000D03*
%TO.P,C7,2*%
%TO.N,GND*%
X129000000Y-90000000D03*
%TD*%
D16*
%TO.P,J2,1,Pin_1*%
%TO.N,GND*%
X136500000Y-72500000D03*
D17*
%TO.P,J2,2,Pin_2*%
%TO.N,/USART1_RX*%
X133960000Y-72500000D03*
%TO.P,J2,3,Pin_3*%
%TO.N,/USART1_TX*%
X131420000Y-72500000D03*
%TO.P,J2,4,Pin_4*%
%TO.N,+3.3V*%
X128880000Y-72500000D03*
%TD*%
D18*
%TO.P,R3,1*%
%TO.N,/PWR_LED_K*%
X155500000Y-95020000D03*
%TO.P,R3,2*%
%TO.N,GND*%
X155500000Y-94000000D03*
%TD*%
D14*
%TO.P,C3,1*%
%TO.N,+3.3V*%
X126500000Y-80520000D03*
%TO.P,C3,2*%
%TO.N,GND*%
X126500000Y-81480000D03*
%TD*%
D19*
%TO.P,U2,1,GND*%
%TO.N,GND*%
X150300000Y-92700000D03*
%TO.P,U2,2,VO*%
%TO.N,+3.3V*%
X148000000Y-92700000D03*
D20*
X148000000Y-99000000D03*
D19*
%TO.P,U2,3,VI*%
%TO.N,VBUS*%
X145700000Y-92700000D03*
%TD*%
D14*
%TO.P,C11,1*%
%TO.N,/HSE_OUT*%
X122500000Y-84540000D03*
%TO.P,C11,2*%
%TO.N,GND*%
X122500000Y-85500000D03*
%TD*%
D13*
%TO.P,R5,1*%
%TO.N,+3.3V*%
X132980000Y-91500000D03*
%TO.P,R5,2*%
%TO.N,/I2C2_SDA*%
X134000000Y-91500000D03*
%TD*%
D21*
%TO.P,C13,1*%
%TO.N,+3.3V*%
X153000000Y-94400000D03*
%TO.P,C13,2*%
%TO.N,GND*%
X153000000Y-92500000D03*
%TD*%
D22*
%TO.P,C9,1*%
%TO.N,/NRST*%
X123540000Y-81500000D03*
%TO.P,C9,2*%
%TO.N,GND*%
X124500000Y-81500000D03*
%TD*%
D15*
%TO.P,C6,1*%
%TO.N,+3.3VA*%
X129960000Y-91500000D03*
%TO.P,C6,2*%
%TO.N,GND*%
X129000000Y-91500000D03*
%TD*%
D16*
%TO.P,J3,1,Pin_1*%
%TO.N,+3.3V*%
X150620000Y-72500000D03*
D17*
%TO.P,J3,2,Pin_2*%
%TO.N,/SWDIO*%
X148080000Y-72500000D03*
%TO.P,J3,3,Pin_3*%
%TO.N,/SWCLK*%
X145540000Y-72500000D03*
%TO.P,J3,4,Pin_4*%
%TO.N,GND*%
X143000000Y-72500000D03*
%TD*%
D23*
%TO.P,FB1,1*%
%TO.N,+3.3VA*%
X125500000Y-91000000D03*
%TO.P,FB1,2*%
%TO.N,+3.3V*%
X125500000Y-89425000D03*
%TD*%
D13*
%TO.P,R1,1*%
%TO.N,/SW_BOOT0*%
X126980000Y-76500000D03*
%TO.P,R1,2*%
%TO.N,/BOOT0*%
X128000000Y-76500000D03*
%TD*%
D24*
%TO.P,Y1,1,1*%
%TO.N,/HSE_IN*%
X126000000Y-86200000D03*
%TO.P,Y1,2,2*%
%TO.N,GND*%
X126000000Y-84000000D03*
%TO.P,Y1,3,3*%
%TO.N,/HSE_OUT*%
X124300000Y-84000000D03*
%TO.P,Y1,4,4*%
%TO.N,GND*%
X124300000Y-86200000D03*
%TD*%
D14*
%TO.P,C1,1*%
%TO.N,+3.3V*%
X141000000Y-80540000D03*
%TO.P,C1,2*%
%TO.N,GND*%
X141000000Y-81500000D03*
%TD*%
D25*
%TO.P,R2,1*%
%TO.N,+3.3V*%
X143500000Y-81490000D03*
%TO.P,R2,2*%
%TO.N,/USB_D+*%
X143500000Y-82510000D03*
%TD*%
D22*
%TO.P,C2,1*%
%TO.N,+3.3V*%
X132040000Y-77000000D03*
%TO.P,C2,2*%
%TO.N,GND*%
X133000000Y-77000000D03*
%TD*%
D23*
%TO.P,D1,1,K*%
%TO.N,/PWR_LED_K*%
X153500000Y-98075000D03*
%TO.P,D1,2,A*%
%TO.N,+3.3V*%
X153500000Y-96500000D03*
%TD*%
D26*
%TO.P,C10,1*%
%TO.N,/HSE_IN*%
X128000000Y-85460000D03*
%TO.P,C10,2*%
%TO.N,GND*%
X128000000Y-84500000D03*
%TD*%
D15*
%TO.P,C8,1*%
%TO.N,+3.3V*%
X129960000Y-88500000D03*
%TO.P,C8,2*%
%TO.N,GND*%
X129000000Y-88500000D03*
%TD*%
D16*
%TO.P,J4,1,Pin_1*%
%TO.N,GND*%
X130380000Y-97000000D03*
D17*
%TO.P,J4,2,Pin_2*%
%TO.N,/I2C2_SDA*%
X132920000Y-97000000D03*
%TO.P,J4,3,Pin_3*%
%TO.N,/I2C2_SCL*%
X135460000Y-97000000D03*
%TO.P,J4,4,Pin_4*%
%TO.N,+3.3V*%
X138000000Y-97000000D03*
%TD*%
D27*
%TO.P,U1,1,VBAT*%
%TO.N,+3.3V*%
X130675000Y-80500000D03*
%TO.P,U1,2,PC13*%
%TO.N,unconnected-(U1-PC13-Pad2)*%
X130675000Y-81000000D03*
%TO.P,U1,3,PC14*%
%TO.N,unconnected-(U1-PC14-Pad3)*%
X130675000Y-81500000D03*
%TO.P,U1,4,PC15*%
%TO.N,unconnected-(U1-PC15-Pad4)*%
X130675000Y-82000000D03*
%TO.P,U1,5,PD0*%
%TO.N,/HSE_IN*%
X130675000Y-82500000D03*
%TO.P,U1,6,PD1*%
%TO.N,/HSE_OUT*%
X130675000Y-83000000D03*
%TO.P,U1,7,NRST*%
%TO.N,/NRST*%
X130675000Y-83500000D03*
%TO.P,U1,8,VSSA*%
%TO.N,GND*%
X130675000Y-84000000D03*
%TO.P,U1,9,VDDA*%
%TO.N,+3.3VA*%
X130675000Y-84500000D03*
%TO.P,U1,10,PA0*%
%TO.N,unconnected-(U1-PA0-Pad10)*%
X130675000Y-85000000D03*
%TO.P,U1,11,PA1*%
%TO.N,unconnected-(U1-PA1-Pad11)*%
X130675000Y-85500000D03*
%TO.P,U1,12,PA2*%
%TO.N,unconnected-(U1-PA2-Pad12)*%
X130675000Y-86000000D03*
D28*
%TO.P,U1,13,PA3*%
%TO.N,unconnected-(U1-PA3-Pad13)*%
X132087500Y-87412500D03*
%TO.P,U1,14,PA4*%
%TO.N,unconnected-(U1-PA4-Pad14)*%
X132587500Y-87412500D03*
%TO.P,U1,15,PA5*%
%TO.N,unconnected-(U1-PA5-Pad15)*%
X133087500Y-87412500D03*
%TO.P,U1,16,PA6*%
%TO.N,unconnected-(U1-PA6-Pad16)*%
X133587500Y-87412500D03*
%TO.P,U1,17,PA7*%
%TO.N,unconnected-(U1-PA7-Pad17)*%
X134087500Y-87412500D03*
%TO.P,U1,18,PB0*%
%TO.N,unconnected-(U1-PB0-Pad18)*%
X134587500Y-87412500D03*
%TO.P,U1,19,PB1*%
%TO.N,unconnected-(U1-PB1-Pad19)*%
X135087500Y-87412500D03*
%TO.P,U1,20,PB2*%
%TO.N,unconnected-(U1-PB2-Pad20)*%
X135587500Y-87412500D03*
%TO.P,U1,21,PB10*%
%TO.N,/I2C2_SCL*%
X136087500Y-87412500D03*
%TO.P,U1,22,PB11*%
%TO.N,/I2C2_SDA*%
X136587500Y-87412500D03*
%TO.P,U1,23,VSS*%
%TO.N,GND*%
X137087500Y-87412500D03*
%TO.P,U1,24,VDD*%
%TO.N,+3.3V*%
X137587500Y-87412500D03*
D27*
%TO.P,U1,25,PB12*%
%TO.N,unconnected-(U1-PB12-Pad25)*%
X139000000Y-86000000D03*
%TO.P,U1,26,PB13*%
%TO.N,unconnected-(U1-PB13-Pad26)*%
X139000000Y-85500000D03*
%TO.P,U1,27,PB14*%
%TO.N,unconnected-(U1-PB14-Pad27)*%
X139000000Y-85000000D03*
%TO.P,U1,28,PB15*%
%TO.N,unconnected-(U1-PB15-Pad28)*%
X139000000Y-84500000D03*
%TO.P,U1,29,PA8*%
%TO.N,unconnected-(U1-PA8-Pad29)*%
X139000000Y-84000000D03*
%TO.P,U1,30,PA9*%
%TO.N,unconnected-(U1-PA9-Pad30)*%
X139000000Y-83500000D03*
%TO.P,U1,31,PA10*%
%TO.N,unconnected-(U1-PA10-Pad31)*%
X139000000Y-83000000D03*
%TO.P,U1,32,PA11*%
%TO.N,/USB_D-*%
X139000000Y-82500000D03*
%TO.P,U1,33,PA12*%
%TO.N,/USB_D+*%
X139000000Y-82000000D03*
%TO.P,U1,34,PA13*%
%TO.N,/SWDIO*%
X139000000Y-81500000D03*
%TO.P,U1,35,VSS*%
%TO.N,GND*%
X139000000Y-81000000D03*
%TO.P,U1,36,VDD*%
%TO.N,+3.3V*%
X139000000Y-80500000D03*
D28*
%TO.P,U1,37,PA14*%
%TO.N,/SWCLK*%
X137587500Y-79087500D03*
%TO.P,U1,38,PA15*%
%TO.N,unconnected-(U1-PA15-Pad38)*%
X137087500Y-79087500D03*
%TO.P,U1,39,PB3*%
%TO.N,unconnected-(U1-PB3-Pad39)*%
X136587500Y-79087500D03*
%TO.P,U1,40,PB4*%
%TO.N,unconnected-(U1-PB4-Pad40)*%
X136087500Y-79087500D03*
%TO.P,U1,41,PB5*%
%TO.N,unconnected-(U1-PB5-Pad41)*%
X135587500Y-79087500D03*
%TO.P,U1,42,PB6*%
%TO.N,/USART1_TX*%
X135087500Y-79087500D03*
%TO.P,U1,43,PB7*%
%TO.N,/USART1_RX*%
X134587500Y-79087500D03*
%TO.P,U1,44,BOOT0*%
%TO.N,/BOOT0*%
X134087500Y-79087500D03*
%TO.P,U1,45,PB8*%
%TO.N,unconnected-(U1-PB8-Pad45)*%
X133587500Y-79087500D03*
%TO.P,U1,46,PB9*%
%TO.N,unconnected-(U1-PB9-Pad46)*%
X133087500Y-79087500D03*
%TO.P,U1,47,VSS*%
%TO.N,GND*%
X132587500Y-79087500D03*
%TO.P,U1,48,VDD*%
%TO.N,+3.3V*%
X132087500Y-79087500D03*
%TD*%
D29*
%TO.P,J1,1,VBUS*%
%TO.N,VBUS*%
X157900000Y-83925000D03*
%TO.P,J1,2,D-*%
%TO.N,/USB_D-*%
X157900000Y-83275000D03*
%TO.P,J1,3,D+*%
%TO.N,/USB_D+*%
X157900000Y-82625000D03*
%TO.P,J1,4,ID*%
%TO.N,unconnected-(J1-ID-Pad4)*%
X157900000Y-81975000D03*
%TO.P,J1,5,GND*%
%TO.N,GND*%
X157900000Y-81325000D03*
D30*
%TO.P,J1,6,Shield*%
%TO.N,unconnected-(J1-Shield-Pad6)_1*%
X161750000Y-86500000D03*
D31*
%TO.N,unconnected-(J1-Shield-Pad6)*%
X157950000Y-86350000D03*
%TO.N,unconnected-(J1-Shield-Pad6)_2*%
X157950000Y-78900000D03*
D30*
%TO.N,unconnected-(J1-Shield-Pad6)_3*%
X161750000Y-78750000D03*
%TD*%
D32*
%TO.P,C12,1*%
%TO.N,VBUS*%
X145100000Y-90000000D03*
%TO.P,C12,2*%
%TO.N,GND*%
X147000000Y-90000000D03*
%TD*%
D33*
%TO.N,+3.3V*%
X131000000Y-78000000D03*
X129500000Y-79500000D03*
X129422215Y-87077785D03*
X132500000Y-89000000D03*
X138500000Y-88000000D03*
X130500000Y-75000000D03*
X140000000Y-79500000D03*
%TO.N,GND*%
X142000000Y-81500000D03*
X132500000Y-84000000D03*
X128500000Y-86500000D03*
%TO.N,/I2C2_SCL*%
X136078262Y-92795073D03*
X141500000Y-93000000D03*
%TO.N,GND*%
X131500000Y-76000000D03*
X122000000Y-74000000D03*
%TO.N,/NRST*%
X129054487Y-84164495D03*
X127500000Y-79500000D03*
%TO.N,GND*%
X122500000Y-86500000D03*
%TO.N,+3.3V*%
X134000000Y-89000000D03*
X140500000Y-89000000D03*
X138500000Y-89000000D03*
%TO.N,GND*%
X155000000Y-80500000D03*
X150500000Y-90000000D03*
X123000000Y-82500000D03*
X126500000Y-88000000D03*
X140500000Y-74000000D03*
X137000000Y-75500000D03*
X129000000Y-92500000D03*
X136500000Y-92000000D03*
X125000000Y-80000000D03*
X128500000Y-82500000D03*
X126500000Y-82500000D03*
%TD*%
D34*
%TO.N,+3.3V*%
X130675000Y-80500000D02*
X129500000Y-80500000D01*
X129500000Y-80500000D02*
X128540000Y-80500000D01*
X129500000Y-79500000D02*
X129500000Y-80500000D01*
X132087500Y-78000000D02*
X132087500Y-77047500D01*
X132087500Y-79087500D02*
X132087500Y-78000000D01*
X132087500Y-78000000D02*
X131000000Y-78000000D01*
D35*
X129000000Y-87500000D02*
X129000000Y-87740000D01*
X132980000Y-90020000D02*
X132980000Y-89480000D01*
X132980000Y-89480000D02*
X132500000Y-89000000D01*
X129422215Y-87077785D02*
X129000000Y-87500000D01*
D34*
%TO.N,+3.3VA*%
X129960000Y-90000000D02*
X130590000Y-89370000D01*
X130590000Y-87255620D02*
X129587500Y-86253120D01*
X130590000Y-89370000D02*
X130590000Y-87255620D01*
X129587500Y-86253120D02*
X129587500Y-84746880D01*
X129587500Y-84746880D02*
X129834380Y-84500000D01*
X129834380Y-84500000D02*
X130675000Y-84500000D01*
%TO.N,+3.3V*%
X125500000Y-89425000D02*
X127068154Y-89425000D01*
X129960000Y-88190001D02*
X129960000Y-88500000D01*
X127068154Y-89425000D02*
X128653154Y-87840000D01*
X128653154Y-87840000D02*
X129609999Y-87840000D01*
X129609999Y-87840000D02*
X129960000Y-88190001D01*
%TO.N,+3.3VA*%
X129960000Y-90000000D02*
X129960000Y-91500000D01*
X125500000Y-91000000D02*
X127700000Y-93200000D01*
X129300000Y-93200000D02*
X129960000Y-92540000D01*
X127700000Y-93200000D02*
X129300000Y-93200000D01*
X129960000Y-92540000D02*
X129960000Y-91500000D01*
%TO.N,/HSE_OUT*%
X123350000Y-90350000D02*
X123350000Y-84950000D01*
X131500000Y-86659380D02*
X131500000Y-92500000D01*
X123500000Y-90500000D02*
X123350000Y-90350000D01*
X123500000Y-91500000D02*
X123500000Y-90500000D01*
X129500000Y-94500000D02*
X126500000Y-94500000D01*
X131500000Y-92500000D02*
X129500000Y-94500000D01*
X131834380Y-86325000D02*
X131500000Y-86659380D01*
X133175000Y-86325000D02*
X131834380Y-86325000D01*
X133500000Y-86000000D02*
X133175000Y-86325000D01*
X126500000Y-94500000D02*
X123500000Y-91500000D01*
X123350000Y-84950000D02*
X124300000Y-84000000D01*
X133500000Y-83500000D02*
X133500000Y-86000000D01*
X133000000Y-83000000D02*
X133500000Y-83500000D01*
X130675000Y-83000000D02*
X133000000Y-83000000D01*
%TO.N,+3.3V*%
X137912500Y-87412500D02*
X138500000Y-88000000D01*
X137587500Y-87412500D02*
X137912500Y-87412500D01*
X128880000Y-75380000D02*
X129500000Y-76000000D01*
X129500000Y-76000000D02*
X130500000Y-77000000D01*
X130500000Y-75000000D02*
X129500000Y-76000000D01*
X139000000Y-80500000D02*
X140000000Y-79500000D01*
%TO.N,GND*%
X141000000Y-81500000D02*
X142000000Y-81500000D01*
X130675000Y-84000000D02*
X132500000Y-84000000D01*
X128660000Y-86340000D02*
X128500000Y-86500000D01*
X128660000Y-84850001D02*
X128660000Y-86340000D01*
X128309999Y-84500000D02*
X128660000Y-84850001D01*
X128000000Y-84500000D02*
X128309999Y-84500000D01*
%TO.N,/I2C2_SCL*%
X135460000Y-93413335D02*
X136078262Y-92795073D01*
X135460000Y-93500000D02*
X135460000Y-93413335D01*
X135460000Y-93000000D02*
X135460000Y-93500000D01*
X135460000Y-93500000D02*
X135460000Y-97000000D01*
X141000000Y-92500000D02*
X141500000Y-93000000D01*
X141000000Y-91500000D02*
X141000000Y-92500000D01*
X135460000Y-90245592D02*
X135460000Y-93000000D01*
%TO.N,+3.3V*%
X143500000Y-81490000D02*
X143500000Y-79620000D01*
X143500000Y-79620000D02*
X150620000Y-72500000D01*
X143500000Y-81490000D02*
X142550000Y-80540000D01*
X142550000Y-80540000D02*
X141000000Y-80540000D01*
%TO.N,/USB_D+*%
X143500000Y-82510000D02*
X146510000Y-82510000D01*
X146510000Y-82510000D02*
X146625000Y-82625000D01*
X143500000Y-82510000D02*
X141003154Y-82510000D01*
X141003154Y-82510000D02*
X140493154Y-82000000D01*
X140493154Y-82000000D02*
X139000000Y-82000000D01*
%TO.N,GND*%
X132309999Y-76000000D02*
X131500000Y-76000000D01*
X133000000Y-76690001D02*
X132309999Y-76000000D01*
X133000000Y-77000000D02*
X133000000Y-76690001D01*
X121750000Y-73750000D02*
X122000000Y-74000000D01*
X119760000Y-73750000D02*
X121750000Y-73750000D01*
%TO.N,+3.3V*%
X119760000Y-78250000D02*
X127239950Y-78250000D01*
X127239950Y-78250000D02*
X128500000Y-79510050D01*
X128500000Y-79510050D02*
X128500000Y-80540000D01*
%TO.N,/NRST*%
X129054487Y-84164495D02*
X129718982Y-83500000D01*
X129718982Y-83500000D02*
X130675000Y-83500000D01*
X123540000Y-81500000D02*
X123540000Y-81546846D01*
X123540000Y-81546846D02*
X123540000Y-80470050D01*
X123540000Y-80470050D02*
X124710050Y-79300000D01*
X124710050Y-79300000D02*
X127300000Y-79300000D01*
X127300000Y-79300000D02*
X127500000Y-79500000D01*
D35*
%TO.N,GND*%
X122500000Y-85500000D02*
X122500000Y-86500000D01*
%TO.N,+3.3V*%
X132980000Y-90020000D02*
X134000000Y-89000000D01*
X132980000Y-91500000D02*
X132980000Y-90020000D01*
D34*
X138050000Y-90500000D02*
X138050000Y-89450000D01*
X138050000Y-89450000D02*
X138500000Y-89000000D01*
D35*
X139980000Y-91500000D02*
X139980000Y-91180001D01*
X139980000Y-91180001D02*
X140500000Y-90660001D01*
X140500000Y-90660001D02*
X140500000Y-89000000D01*
D34*
%TO.N,/I2C2_SDA*%
X136587500Y-87412500D02*
X136587500Y-86571880D01*
X136587500Y-86571880D02*
X136834380Y-86325000D01*
X136834380Y-86325000D02*
X137840620Y-86325000D01*
X139500000Y-87984380D02*
X139500000Y-90344408D01*
X137840620Y-86325000D02*
X139500000Y-87984380D01*
X139500000Y-90344408D02*
X136660000Y-93184408D01*
X136660000Y-93184408D02*
X136660000Y-97497057D01*
X136660000Y-97497057D02*
X135957057Y-98200000D01*
X135957057Y-98200000D02*
X134120000Y-98200000D01*
X134120000Y-98200000D02*
X132920000Y-97000000D01*
D35*
%TO.N,+3.3V*%
X139500000Y-95500000D02*
X138000000Y-97000000D01*
X139980000Y-95020000D02*
X139500000Y-95500000D01*
X139500000Y-95500000D02*
X143000000Y-99000000D01*
X143000000Y-99000000D02*
X148000000Y-99000000D01*
X139980000Y-91500000D02*
X139980000Y-95020000D01*
D34*
%TO.N,/USART1_RX*%
X133960000Y-72500000D02*
X132760000Y-71300000D01*
X132760000Y-71300000D02*
X130922943Y-71300000D01*
X130922943Y-71300000D02*
X130220000Y-72002943D01*
X130220000Y-72002943D02*
X130220000Y-72997057D01*
X130220000Y-72997057D02*
X130922943Y-73700000D01*
X130922943Y-73700000D02*
X131700000Y-73700000D01*
X131700000Y-73700000D02*
X134587500Y-76587500D01*
X134587500Y-76587500D02*
X134587500Y-79087500D01*
%TO.N,+3.3V*%
X128880000Y-72500000D02*
X128880000Y-75380000D01*
X130500000Y-77000000D02*
X132040000Y-77000000D01*
%TO.N,/BOOT0*%
X134087500Y-79087500D02*
X134087500Y-79928120D01*
X134087500Y-79928120D02*
X133015620Y-81000000D01*
X133015620Y-81000000D02*
X132515620Y-81000000D01*
X132515620Y-81000000D02*
X128015620Y-76500000D01*
X128015620Y-76500000D02*
X128000000Y-76500000D01*
%TO.N,GND*%
X155825000Y-81325000D02*
X155000000Y-80500000D01*
X157900000Y-81325000D02*
X155825000Y-81325000D01*
D35*
%TO.N,VBUS*%
X145100000Y-90000000D02*
X150000000Y-85100000D01*
X150000000Y-85100000D02*
X157400000Y-85100000D01*
X157400000Y-85100000D02*
X157900000Y-84600000D01*
X157900000Y-84600000D02*
X157900000Y-83950000D01*
X145700000Y-92700000D02*
X145700000Y-90600000D01*
X145700000Y-90600000D02*
X145100000Y-90000000D01*
%TO.N,/PWR_LED_K*%
X153500000Y-98075000D02*
X155500000Y-96075000D01*
X155500000Y-96075000D02*
X155500000Y-95020000D01*
%TO.N,+3.3V*%
X153000000Y-94400000D02*
X153000000Y-96000000D01*
X153000000Y-96000000D02*
X153500000Y-96500000D01*
X148000000Y-99000000D02*
X152600000Y-94400000D01*
X152600000Y-94400000D02*
X153000000Y-94400000D01*
X148000000Y-92700000D02*
X148000000Y-99000000D01*
%TO.N,GND*%
X153000000Y-92500000D02*
X154000000Y-92500000D01*
X154000000Y-92500000D02*
X155500000Y-94000000D01*
X150300000Y-92700000D02*
X152800000Y-92700000D01*
X152800000Y-92700000D02*
X153000000Y-92500000D01*
X150300000Y-92700000D02*
X150300000Y-90200000D01*
X150300000Y-90200000D02*
X150500000Y-90000000D01*
X147000000Y-90000000D02*
X150500000Y-90000000D01*
D34*
X124600000Y-82500000D02*
X123000000Y-82500000D01*
X126000000Y-83900000D02*
X124600000Y-82500000D01*
X126000000Y-84000000D02*
X126000000Y-83900000D01*
X126000000Y-88000000D02*
X126500000Y-88000000D01*
X124300000Y-86300000D02*
X126000000Y-88000000D01*
X124300000Y-86200000D02*
X124300000Y-86300000D01*
X141500000Y-74000000D02*
X140500000Y-74000000D01*
X143000000Y-72500000D02*
X141500000Y-74000000D01*
%TO.N,/SWDIO*%
X148080000Y-72500000D02*
X148080000Y-73702081D01*
X148080000Y-73702081D02*
X143782081Y-78000000D01*
X143782081Y-78000000D02*
X140159380Y-78000000D01*
X140159380Y-78000000D02*
X137500000Y-80659380D01*
X137500000Y-80659380D02*
X137500000Y-81000000D01*
X137500000Y-81000000D02*
X138000000Y-81500000D01*
X138000000Y-81500000D02*
X139000000Y-81500000D01*
%TO.N,/SWCLK*%
X137587500Y-79087500D02*
X137587500Y-77912500D01*
X137587500Y-77912500D02*
X139000000Y-76500000D01*
X139000000Y-76500000D02*
X143500000Y-76500000D01*
X143500000Y-76500000D02*
X145540000Y-74460000D01*
X145540000Y-74460000D02*
X145540000Y-72500000D01*
D35*
%TO.N,GND*%
X136500000Y-75000000D02*
X137000000Y-75500000D01*
X136500000Y-72500000D02*
X136500000Y-75000000D01*
D34*
%TO.N,/USART1_TX*%
X131420000Y-72500000D02*
X135087500Y-76167500D01*
X135087500Y-76167500D02*
X135087500Y-79087500D01*
%TO.N,/SW_BOOT0*%
X119760000Y-76750000D02*
X126730000Y-76750000D01*
X126730000Y-76750000D02*
X126980000Y-76500000D01*
D35*
%TO.N,GND*%
X129000000Y-91500000D02*
X129000000Y-92500000D01*
X129000000Y-91500000D02*
X129000000Y-90000000D01*
X129000000Y-88500000D02*
X129000000Y-90000000D01*
D34*
X136500000Y-90500000D02*
X136500000Y-92000000D01*
D35*
X124500000Y-80500000D02*
X125000000Y-80000000D01*
X124500000Y-81500000D02*
X124500000Y-80500000D01*
X128500000Y-81500000D02*
X128500000Y-82500000D01*
X126500000Y-81480000D02*
X126500000Y-82500000D01*
D34*
%TO.N,/I2C2_SDA*%
X132920000Y-97000000D02*
X134000000Y-95920000D01*
X134000000Y-95920000D02*
X134000000Y-91500000D01*
%TO.N,/I2C2_SCL*%
X136087500Y-87412500D02*
X136087500Y-89618092D01*
X136087500Y-89618092D02*
X135460000Y-90245592D01*
%TO.N,GND*%
X137087500Y-87412500D02*
X137087500Y-89912500D01*
X137087500Y-89912500D02*
X136500000Y-90500000D01*
%TO.N,+3.3V*%
X137587500Y-87412500D02*
X137587500Y-90037500D01*
X137587500Y-90037500D02*
X138050000Y-90500000D01*
%TO.N,GND*%
X139000000Y-81000000D02*
X140453154Y-81000000D01*
X140453154Y-81000000D02*
X140953154Y-81500000D01*
X140953154Y-81500000D02*
X141000000Y-81500000D01*
%TO.N,+3.3V*%
X141000000Y-80540000D02*
X140960000Y-80500000D01*
X140960000Y-80500000D02*
X139000000Y-80500000D01*
%TO.N,/USB_D+*%
X157900000Y-82625000D02*
X146625000Y-82625000D01*
%TO.N,/USB_D-*%
X139000000Y-82500000D02*
X139840620Y-82500000D01*
X155725000Y-84500000D02*
X156950000Y-83275000D01*
X139840620Y-82500000D02*
X141840620Y-84500000D01*
X141840620Y-84500000D02*
X155725000Y-84500000D01*
X156950000Y-83275000D02*
X157900000Y-83275000D01*
%TO.N,/HSE_OUT*%
X122500000Y-84540000D02*
X123760000Y-84540000D01*
X123760000Y-84540000D02*
X124300000Y-84000000D01*
%TO.N,/HSE_IN*%
X128000000Y-85460000D02*
X126740000Y-85460000D01*
X126740000Y-85460000D02*
X126000000Y-86200000D01*
X127500000Y-83500000D02*
X127000000Y-84000000D01*
X130675000Y-82500000D02*
X129834380Y-82500000D01*
X127000000Y-84000000D02*
X127000000Y-84769999D01*
X129834380Y-82500000D02*
X128834380Y-83500000D01*
X127000000Y-84769999D02*
X127690001Y-85460000D01*
X128834380Y-83500000D02*
X127500000Y-83500000D01*
X127690001Y-85460000D02*
X128000000Y-85460000D01*
%TO.N,+3.3V*%
X126500000Y-80520000D02*
X128480000Y-80520000D01*
X128480000Y-80520000D02*
X128500000Y-80540000D01*
X128540000Y-80500000D02*
X128500000Y-80540000D01*
%TO.N,GND*%
X132587500Y-79087500D02*
X132587500Y-78246880D01*
X132587500Y-78246880D02*
X133000000Y-77834380D01*
X133000000Y-77834380D02*
X133000000Y-77000000D01*
%TO.N,+3.3V*%
X132087500Y-77047500D02*
X132040000Y-77000000D01*
%TD*%
M02*
