M48
; DRILL file {KiCad 8.0.5-8.0.5-0~ubuntu22.04.1} date 2024-10-15T18:41:08+0300
; FORMAT={-:-/ absolute / metric / decimal}
; #@! TF.CreationDate,2024-10-15T18:41:08+03:00
; #@! TF.GenerationSoftware,Kicad,Pcbnew,8.0.5-8.0.5-0~ubuntu22.04.1
; #@! TF.FileFunction,Plated,1,2,PTH
FMAT,2
METRIC
; #@! TA.AperFunction,Plated,PTH,ViaDrill
T1C0.300
; #@! TA.AperFunction,Plated,PTH,ComponentDrill
T2C0.550
; #@! TA.AperFunction,Plated,PTH,ComponentDrill
T3C0.850
; #@! TA.AperFunction,Plated,PTH,ComponentDrill
T4C1.000
%
G90
G05
T1
X122.0Y-74.0
X122.5Y-86.5
X123.0Y-82.5
X125.0Y-80.0
X126.5Y-82.5
X126.5Y-88.0
X127.5Y-79.5
X128.5Y-82.5
X128.5Y-86.5
X129.0Y-92.5
X129.054Y-84.164
X129.422Y-87.078
X129.5Y-79.5
X130.5Y-75.0
X131.0Y-78.0
X131.5Y-76.0
X132.5Y-84.0
X132.5Y-89.0
X134.0Y-89.0
X136.078Y-92.795
X136.5Y-92.0
X137.0Y-75.5
X138.5Y-88.0
X138.5Y-89.0
X140.0Y-79.5
X140.5Y-74.0
X140.5Y-89.0
X141.5Y-93.0
X142.0Y-81.5
X150.5Y-90.0
X155.0Y-80.5
T4
X128.88Y-72.5
X130.38Y-97.0
X131.42Y-72.5
X132.92Y-97.0
X133.96Y-72.5
X135.46Y-97.0
X136.5Y-72.5
X138.0Y-97.0
X143.0Y-72.5
X145.54Y-72.5
X148.08Y-72.5
X150.62Y-72.5
T2
G00X161.425Y-78.75
M15
G01X162.075Y-78.75
M16
G05
G00X161.425Y-86.5
M15
G01X162.075Y-86.5
M16
G05
T3
G00X157.675Y-78.9
M15
G01X158.225Y-78.9
M16
G05
G00X157.675Y-86.35
M15
G01X158.225Y-86.35
M16
G05
M30
