%TF.GenerationSoftware,KiCad,Pcbnew,8.0.5-8.0.5-0~ubuntu22.04.1*%
%TF.CreationDate,2024-10-15T17:57:52+03:00*%
%TF.ProjectId,sc,73632e6b-6963-4616-945f-706362585858,rev?*%
%TF.SameCoordinates,Original*%
%TF.FileFunction,Legend,Top*%
%TF.FilePolarity,Positive*%
%FSLAX46Y46*%
G04 Gerber Fmt 4.6, Leading zero omitted, Abs format (unit mm)*
G04 Created by KiCad (PCBNEW 8.0.5-8.0.5-0~ubuntu22.04.1) date 2024-10-15 17:57:52*
%MOMM*%
%LPD*%
G01*
G04 APERTURE LIST*
%ADD10C,0.100000*%
%ADD11C,0.200000*%
%ADD12C,0.150000*%
%ADD13C,0.125000*%
%ADD14C,0.120000*%
G04 APERTURE END LIST*
D10*
X126803884Y-69372419D02*
X126803884Y-70181942D01*
X126803884Y-70181942D02*
X126851503Y-70277180D01*
X126851503Y-70277180D02*
X126899122Y-70324800D01*
X126899122Y-70324800D02*
X126994360Y-70372419D01*
X126994360Y-70372419D02*
X127184836Y-70372419D01*
X127184836Y-70372419D02*
X127280074Y-70324800D01*
X127280074Y-70324800D02*
X127327693Y-70277180D01*
X127327693Y-70277180D02*
X127375312Y-70181942D01*
X127375312Y-70181942D02*
X127375312Y-69372419D01*
X127803884Y-70324800D02*
X127946741Y-70372419D01*
X127946741Y-70372419D02*
X128184836Y-70372419D01*
X128184836Y-70372419D02*
X128280074Y-70324800D01*
X128280074Y-70324800D02*
X128327693Y-70277180D01*
X128327693Y-70277180D02*
X128375312Y-70181942D01*
X128375312Y-70181942D02*
X128375312Y-70086704D01*
X128375312Y-70086704D02*
X128327693Y-69991466D01*
X128327693Y-69991466D02*
X128280074Y-69943847D01*
X128280074Y-69943847D02*
X128184836Y-69896228D01*
X128184836Y-69896228D02*
X127994360Y-69848609D01*
X127994360Y-69848609D02*
X127899122Y-69800990D01*
X127899122Y-69800990D02*
X127851503Y-69753371D01*
X127851503Y-69753371D02*
X127803884Y-69658133D01*
X127803884Y-69658133D02*
X127803884Y-69562895D01*
X127803884Y-69562895D02*
X127851503Y-69467657D01*
X127851503Y-69467657D02*
X127899122Y-69420038D01*
X127899122Y-69420038D02*
X127994360Y-69372419D01*
X127994360Y-69372419D02*
X128232455Y-69372419D01*
X128232455Y-69372419D02*
X128375312Y-69420038D01*
X128756265Y-70086704D02*
X129232455Y-70086704D01*
X128661027Y-70372419D02*
X128994360Y-69372419D01*
X128994360Y-69372419D02*
X129327693Y-70372419D01*
X130232455Y-70372419D02*
X129899122Y-69896228D01*
X129661027Y-70372419D02*
X129661027Y-69372419D01*
X129661027Y-69372419D02*
X130041979Y-69372419D01*
X130041979Y-69372419D02*
X130137217Y-69420038D01*
X130137217Y-69420038D02*
X130184836Y-69467657D01*
X130184836Y-69467657D02*
X130232455Y-69562895D01*
X130232455Y-69562895D02*
X130232455Y-69705752D01*
X130232455Y-69705752D02*
X130184836Y-69800990D01*
X130184836Y-69800990D02*
X130137217Y-69848609D01*
X130137217Y-69848609D02*
X130041979Y-69896228D01*
X130041979Y-69896228D02*
X129661027Y-69896228D01*
X130518170Y-69372419D02*
X131089598Y-69372419D01*
X130803884Y-70372419D02*
X130803884Y-69372419D01*
X144756265Y-69824800D02*
X144899122Y-69872419D01*
X144899122Y-69872419D02*
X145137217Y-69872419D01*
X145137217Y-69872419D02*
X145232455Y-69824800D01*
X145232455Y-69824800D02*
X145280074Y-69777180D01*
X145280074Y-69777180D02*
X145327693Y-69681942D01*
X145327693Y-69681942D02*
X145327693Y-69586704D01*
X145327693Y-69586704D02*
X145280074Y-69491466D01*
X145280074Y-69491466D02*
X145232455Y-69443847D01*
X145232455Y-69443847D02*
X145137217Y-69396228D01*
X145137217Y-69396228D02*
X144946741Y-69348609D01*
X144946741Y-69348609D02*
X144851503Y-69300990D01*
X144851503Y-69300990D02*
X144803884Y-69253371D01*
X144803884Y-69253371D02*
X144756265Y-69158133D01*
X144756265Y-69158133D02*
X144756265Y-69062895D01*
X144756265Y-69062895D02*
X144803884Y-68967657D01*
X144803884Y-68967657D02*
X144851503Y-68920038D01*
X144851503Y-68920038D02*
X144946741Y-68872419D01*
X144946741Y-68872419D02*
X145184836Y-68872419D01*
X145184836Y-68872419D02*
X145327693Y-68920038D01*
X145661027Y-68872419D02*
X145899122Y-69872419D01*
X145899122Y-69872419D02*
X146089598Y-69158133D01*
X146089598Y-69158133D02*
X146280074Y-69872419D01*
X146280074Y-69872419D02*
X146518170Y-68872419D01*
X146899122Y-69872419D02*
X146899122Y-68872419D01*
X146899122Y-68872419D02*
X147137217Y-68872419D01*
X147137217Y-68872419D02*
X147280074Y-68920038D01*
X147280074Y-68920038D02*
X147375312Y-69015276D01*
X147375312Y-69015276D02*
X147422931Y-69110514D01*
X147422931Y-69110514D02*
X147470550Y-69300990D01*
X147470550Y-69300990D02*
X147470550Y-69443847D01*
X147470550Y-69443847D02*
X147422931Y-69634323D01*
X147422931Y-69634323D02*
X147375312Y-69729561D01*
X147375312Y-69729561D02*
X147280074Y-69824800D01*
X147280074Y-69824800D02*
X147137217Y-69872419D01*
X147137217Y-69872419D02*
X146899122Y-69872419D01*
X132803884Y-100372419D02*
X132803884Y-99705752D01*
X132803884Y-99372419D02*
X132756265Y-99420038D01*
X132756265Y-99420038D02*
X132803884Y-99467657D01*
X132803884Y-99467657D02*
X132851503Y-99420038D01*
X132851503Y-99420038D02*
X132803884Y-99372419D01*
X132803884Y-99372419D02*
X132803884Y-99467657D01*
X133232455Y-99467657D02*
X133280074Y-99420038D01*
X133280074Y-99420038D02*
X133375312Y-99372419D01*
X133375312Y-99372419D02*
X133613407Y-99372419D01*
X133613407Y-99372419D02*
X133708645Y-99420038D01*
X133708645Y-99420038D02*
X133756264Y-99467657D01*
X133756264Y-99467657D02*
X133803883Y-99562895D01*
X133803883Y-99562895D02*
X133803883Y-99658133D01*
X133803883Y-99658133D02*
X133756264Y-99800990D01*
X133756264Y-99800990D02*
X133184836Y-100372419D01*
X133184836Y-100372419D02*
X133803883Y-100372419D01*
X134661026Y-100324800D02*
X134565788Y-100372419D01*
X134565788Y-100372419D02*
X134375312Y-100372419D01*
X134375312Y-100372419D02*
X134280074Y-100324800D01*
X134280074Y-100324800D02*
X134232455Y-100277180D01*
X134232455Y-100277180D02*
X134184836Y-100181942D01*
X134184836Y-100181942D02*
X134184836Y-99896228D01*
X134184836Y-99896228D02*
X134232455Y-99800990D01*
X134232455Y-99800990D02*
X134280074Y-99753371D01*
X134280074Y-99753371D02*
X134375312Y-99705752D01*
X134375312Y-99705752D02*
X134565788Y-99705752D01*
X134565788Y-99705752D02*
X134661026Y-99753371D01*
X152303884Y-99205752D02*
X152303884Y-100205752D01*
X152303884Y-99253371D02*
X152399122Y-99205752D01*
X152399122Y-99205752D02*
X152589598Y-99205752D01*
X152589598Y-99205752D02*
X152684836Y-99253371D01*
X152684836Y-99253371D02*
X152732455Y-99300990D01*
X152732455Y-99300990D02*
X152780074Y-99396228D01*
X152780074Y-99396228D02*
X152780074Y-99681942D01*
X152780074Y-99681942D02*
X152732455Y-99777180D01*
X152732455Y-99777180D02*
X152684836Y-99824800D01*
X152684836Y-99824800D02*
X152589598Y-99872419D01*
X152589598Y-99872419D02*
X152399122Y-99872419D01*
X152399122Y-99872419D02*
X152303884Y-99824800D01*
X153351503Y-99872419D02*
X153256265Y-99824800D01*
X153256265Y-99824800D02*
X153208646Y-99777180D01*
X153208646Y-99777180D02*
X153161027Y-99681942D01*
X153161027Y-99681942D02*
X153161027Y-99396228D01*
X153161027Y-99396228D02*
X153208646Y-99300990D01*
X153208646Y-99300990D02*
X153256265Y-99253371D01*
X153256265Y-99253371D02*
X153351503Y-99205752D01*
X153351503Y-99205752D02*
X153494360Y-99205752D01*
X153494360Y-99205752D02*
X153589598Y-99253371D01*
X153589598Y-99253371D02*
X153637217Y-99300990D01*
X153637217Y-99300990D02*
X153684836Y-99396228D01*
X153684836Y-99396228D02*
X153684836Y-99681942D01*
X153684836Y-99681942D02*
X153637217Y-99777180D01*
X153637217Y-99777180D02*
X153589598Y-99824800D01*
X153589598Y-99824800D02*
X153494360Y-99872419D01*
X153494360Y-99872419D02*
X153351503Y-99872419D01*
X154018170Y-99205752D02*
X154208646Y-99872419D01*
X154208646Y-99872419D02*
X154399122Y-99396228D01*
X154399122Y-99396228D02*
X154589598Y-99872419D01*
X154589598Y-99872419D02*
X154780074Y-99205752D01*
X155541979Y-99824800D02*
X155446741Y-99872419D01*
X155446741Y-99872419D02*
X155256265Y-99872419D01*
X155256265Y-99872419D02*
X155161027Y-99824800D01*
X155161027Y-99824800D02*
X155113408Y-99729561D01*
X155113408Y-99729561D02*
X155113408Y-99348609D01*
X155113408Y-99348609D02*
X155161027Y-99253371D01*
X155161027Y-99253371D02*
X155256265Y-99205752D01*
X155256265Y-99205752D02*
X155446741Y-99205752D01*
X155446741Y-99205752D02*
X155541979Y-99253371D01*
X155541979Y-99253371D02*
X155589598Y-99348609D01*
X155589598Y-99348609D02*
X155589598Y-99443847D01*
X155589598Y-99443847D02*
X155113408Y-99539085D01*
X156018170Y-99872419D02*
X156018170Y-99205752D01*
X156018170Y-99396228D02*
X156065789Y-99300990D01*
X156065789Y-99300990D02*
X156113408Y-99253371D01*
X156113408Y-99253371D02*
X156208646Y-99205752D01*
X156208646Y-99205752D02*
X156303884Y-99205752D01*
X159303884Y-75372419D02*
X159303884Y-76181942D01*
X159303884Y-76181942D02*
X159351503Y-76277180D01*
X159351503Y-76277180D02*
X159399122Y-76324800D01*
X159399122Y-76324800D02*
X159494360Y-76372419D01*
X159494360Y-76372419D02*
X159684836Y-76372419D01*
X159684836Y-76372419D02*
X159780074Y-76324800D01*
X159780074Y-76324800D02*
X159827693Y-76277180D01*
X159827693Y-76277180D02*
X159875312Y-76181942D01*
X159875312Y-76181942D02*
X159875312Y-75372419D01*
X160303884Y-76324800D02*
X160446741Y-76372419D01*
X160446741Y-76372419D02*
X160684836Y-76372419D01*
X160684836Y-76372419D02*
X160780074Y-76324800D01*
X160780074Y-76324800D02*
X160827693Y-76277180D01*
X160827693Y-76277180D02*
X160875312Y-76181942D01*
X160875312Y-76181942D02*
X160875312Y-76086704D01*
X160875312Y-76086704D02*
X160827693Y-75991466D01*
X160827693Y-75991466D02*
X160780074Y-75943847D01*
X160780074Y-75943847D02*
X160684836Y-75896228D01*
X160684836Y-75896228D02*
X160494360Y-75848609D01*
X160494360Y-75848609D02*
X160399122Y-75800990D01*
X160399122Y-75800990D02*
X160351503Y-75753371D01*
X160351503Y-75753371D02*
X160303884Y-75658133D01*
X160303884Y-75658133D02*
X160303884Y-75562895D01*
X160303884Y-75562895D02*
X160351503Y-75467657D01*
X160351503Y-75467657D02*
X160399122Y-75420038D01*
X160399122Y-75420038D02*
X160494360Y-75372419D01*
X160494360Y-75372419D02*
X160732455Y-75372419D01*
X160732455Y-75372419D02*
X160875312Y-75420038D01*
X161637217Y-75848609D02*
X161780074Y-75896228D01*
X161780074Y-75896228D02*
X161827693Y-75943847D01*
X161827693Y-75943847D02*
X161875312Y-76039085D01*
X161875312Y-76039085D02*
X161875312Y-76181942D01*
X161875312Y-76181942D02*
X161827693Y-76277180D01*
X161827693Y-76277180D02*
X161780074Y-76324800D01*
X161780074Y-76324800D02*
X161684836Y-76372419D01*
X161684836Y-76372419D02*
X161303884Y-76372419D01*
X161303884Y-76372419D02*
X161303884Y-75372419D01*
X161303884Y-75372419D02*
X161637217Y-75372419D01*
X161637217Y-75372419D02*
X161732455Y-75420038D01*
X161732455Y-75420038D02*
X161780074Y-75467657D01*
X161780074Y-75467657D02*
X161827693Y-75562895D01*
X161827693Y-75562895D02*
X161827693Y-75658133D01*
X161827693Y-75658133D02*
X161780074Y-75753371D01*
X161780074Y-75753371D02*
X161732455Y-75800990D01*
X161732455Y-75800990D02*
X161637217Y-75848609D01*
X161637217Y-75848609D02*
X161303884Y-75848609D01*
X116803884Y-82372419D02*
X116803884Y-81372419D01*
X116803884Y-81753371D02*
X116899122Y-81705752D01*
X116899122Y-81705752D02*
X117089598Y-81705752D01*
X117089598Y-81705752D02*
X117184836Y-81753371D01*
X117184836Y-81753371D02*
X117232455Y-81800990D01*
X117232455Y-81800990D02*
X117280074Y-81896228D01*
X117280074Y-81896228D02*
X117280074Y-82181942D01*
X117280074Y-82181942D02*
X117232455Y-82277180D01*
X117232455Y-82277180D02*
X117184836Y-82324800D01*
X117184836Y-82324800D02*
X117089598Y-82372419D01*
X117089598Y-82372419D02*
X116899122Y-82372419D01*
X116899122Y-82372419D02*
X116803884Y-82324800D01*
X117851503Y-82372419D02*
X117756265Y-82324800D01*
X117756265Y-82324800D02*
X117708646Y-82277180D01*
X117708646Y-82277180D02*
X117661027Y-82181942D01*
X117661027Y-82181942D02*
X117661027Y-81896228D01*
X117661027Y-81896228D02*
X117708646Y-81800990D01*
X117708646Y-81800990D02*
X117756265Y-81753371D01*
X117756265Y-81753371D02*
X117851503Y-81705752D01*
X117851503Y-81705752D02*
X117994360Y-81705752D01*
X117994360Y-81705752D02*
X118089598Y-81753371D01*
X118089598Y-81753371D02*
X118137217Y-81800990D01*
X118137217Y-81800990D02*
X118184836Y-81896228D01*
X118184836Y-81896228D02*
X118184836Y-82181942D01*
X118184836Y-82181942D02*
X118137217Y-82277180D01*
X118137217Y-82277180D02*
X118089598Y-82324800D01*
X118089598Y-82324800D02*
X117994360Y-82372419D01*
X117994360Y-82372419D02*
X117851503Y-82372419D01*
X118756265Y-82372419D02*
X118661027Y-82324800D01*
X118661027Y-82324800D02*
X118613408Y-82277180D01*
X118613408Y-82277180D02*
X118565789Y-82181942D01*
X118565789Y-82181942D02*
X118565789Y-81896228D01*
X118565789Y-81896228D02*
X118613408Y-81800990D01*
X118613408Y-81800990D02*
X118661027Y-81753371D01*
X118661027Y-81753371D02*
X118756265Y-81705752D01*
X118756265Y-81705752D02*
X118899122Y-81705752D01*
X118899122Y-81705752D02*
X118994360Y-81753371D01*
X118994360Y-81753371D02*
X119041979Y-81800990D01*
X119041979Y-81800990D02*
X119089598Y-81896228D01*
X119089598Y-81896228D02*
X119089598Y-82181942D01*
X119089598Y-82181942D02*
X119041979Y-82277180D01*
X119041979Y-82277180D02*
X118994360Y-82324800D01*
X118994360Y-82324800D02*
X118899122Y-82372419D01*
X118899122Y-82372419D02*
X118756265Y-82372419D01*
X119375313Y-81705752D02*
X119756265Y-81705752D01*
X119518170Y-81372419D02*
X119518170Y-82229561D01*
X119518170Y-82229561D02*
X119565789Y-82324800D01*
X119565789Y-82324800D02*
X119661027Y-82372419D01*
X119661027Y-82372419D02*
X119756265Y-82372419D01*
D11*
X128964911Y-66649600D02*
X128774435Y-66744838D01*
X128774435Y-66744838D02*
X128393482Y-66744838D01*
X128393482Y-66744838D02*
X128203006Y-66649600D01*
X128203006Y-66649600D02*
X128107768Y-66554361D01*
X128107768Y-66554361D02*
X128012530Y-66363885D01*
X128012530Y-66363885D02*
X128012530Y-65792457D01*
X128012530Y-65792457D02*
X128107768Y-65601980D01*
X128107768Y-65601980D02*
X128203006Y-65506742D01*
X128203006Y-65506742D02*
X128393482Y-65411504D01*
X128393482Y-65411504D02*
X128774435Y-65411504D01*
X128774435Y-65411504D02*
X128964911Y-65506742D01*
X130869673Y-66744838D02*
X129726816Y-66744838D01*
X130298244Y-66744838D02*
X130298244Y-64744838D01*
X130298244Y-64744838D02*
X130107768Y-65030552D01*
X130107768Y-65030552D02*
X129917292Y-65221028D01*
X129917292Y-65221028D02*
X129726816Y-65316266D01*
X131726816Y-65411504D02*
X131726816Y-66744838D01*
X131726816Y-65601980D02*
X131822054Y-65506742D01*
X131822054Y-65506742D02*
X132012530Y-65411504D01*
X132012530Y-65411504D02*
X132298245Y-65411504D01*
X132298245Y-65411504D02*
X132488721Y-65506742D01*
X132488721Y-65506742D02*
X132583959Y-65697219D01*
X132583959Y-65697219D02*
X132583959Y-66744838D01*
D10*
X121312300Y-79816665D02*
X121336109Y-79745237D01*
X121336109Y-79745237D02*
X121336109Y-79626189D01*
X121336109Y-79626189D02*
X121312300Y-79578570D01*
X121312300Y-79578570D02*
X121288490Y-79554761D01*
X121288490Y-79554761D02*
X121240871Y-79530951D01*
X121240871Y-79530951D02*
X121193252Y-79530951D01*
X121193252Y-79530951D02*
X121145633Y-79554761D01*
X121145633Y-79554761D02*
X121121823Y-79578570D01*
X121121823Y-79578570D02*
X121098014Y-79626189D01*
X121098014Y-79626189D02*
X121074204Y-79721427D01*
X121074204Y-79721427D02*
X121050395Y-79769046D01*
X121050395Y-79769046D02*
X121026585Y-79792856D01*
X121026585Y-79792856D02*
X120978966Y-79816665D01*
X120978966Y-79816665D02*
X120931347Y-79816665D01*
X120931347Y-79816665D02*
X120883728Y-79792856D01*
X120883728Y-79792856D02*
X120859919Y-79769046D01*
X120859919Y-79769046D02*
X120836109Y-79721427D01*
X120836109Y-79721427D02*
X120836109Y-79602380D01*
X120836109Y-79602380D02*
X120859919Y-79530951D01*
X120836109Y-79364285D02*
X121336109Y-79245237D01*
X121336109Y-79245237D02*
X120978966Y-79149999D01*
X120978966Y-79149999D02*
X121336109Y-79054761D01*
X121336109Y-79054761D02*
X120836109Y-78935714D01*
X121336109Y-78483332D02*
X121336109Y-78769046D01*
X121336109Y-78626189D02*
X120836109Y-78626189D01*
X120836109Y-78626189D02*
X120907538Y-78673808D01*
X120907538Y-78673808D02*
X120955157Y-78721427D01*
X120955157Y-78721427D02*
X120978966Y-78769046D01*
D12*
X119238095Y-97754819D02*
X119238095Y-96754819D01*
X119238095Y-97231009D02*
X119809523Y-97231009D01*
X119809523Y-97754819D02*
X119809523Y-96754819D01*
X120714285Y-97088152D02*
X120714285Y-97754819D01*
X120476190Y-96707200D02*
X120238095Y-97421485D01*
X120238095Y-97421485D02*
X120857142Y-97421485D01*
X158238095Y-97254819D02*
X158238095Y-96254819D01*
X158238095Y-96731009D02*
X158809523Y-96731009D01*
X158809523Y-97254819D02*
X158809523Y-96254819D01*
X159190476Y-96254819D02*
X159809523Y-96254819D01*
X159809523Y-96254819D02*
X159476190Y-96635771D01*
X159476190Y-96635771D02*
X159619047Y-96635771D01*
X159619047Y-96635771D02*
X159714285Y-96683390D01*
X159714285Y-96683390D02*
X159761904Y-96731009D01*
X159761904Y-96731009D02*
X159809523Y-96826247D01*
X159809523Y-96826247D02*
X159809523Y-97064342D01*
X159809523Y-97064342D02*
X159761904Y-97159580D01*
X159761904Y-97159580D02*
X159714285Y-97207200D01*
X159714285Y-97207200D02*
X159619047Y-97254819D01*
X159619047Y-97254819D02*
X159333333Y-97254819D01*
X159333333Y-97254819D02*
X159238095Y-97207200D01*
X159238095Y-97207200D02*
X159190476Y-97159580D01*
X158738095Y-64254819D02*
X158738095Y-63254819D01*
X158738095Y-63731009D02*
X159309523Y-63731009D01*
X159309523Y-64254819D02*
X159309523Y-63254819D01*
X159738095Y-63350057D02*
X159785714Y-63302438D01*
X159785714Y-63302438D02*
X159880952Y-63254819D01*
X159880952Y-63254819D02*
X160119047Y-63254819D01*
X160119047Y-63254819D02*
X160214285Y-63302438D01*
X160214285Y-63302438D02*
X160261904Y-63350057D01*
X160261904Y-63350057D02*
X160309523Y-63445295D01*
X160309523Y-63445295D02*
X160309523Y-63540533D01*
X160309523Y-63540533D02*
X160261904Y-63683390D01*
X160261904Y-63683390D02*
X159690476Y-64254819D01*
X159690476Y-64254819D02*
X160309523Y-64254819D01*
X119238095Y-64254819D02*
X119238095Y-63254819D01*
X119238095Y-63731009D02*
X119809523Y-63731009D01*
X119809523Y-64254819D02*
X119809523Y-63254819D01*
X120809523Y-64254819D02*
X120238095Y-64254819D01*
X120523809Y-64254819D02*
X120523809Y-63254819D01*
X120523809Y-63254819D02*
X120428571Y-63397676D01*
X120428571Y-63397676D02*
X120333333Y-63492914D01*
X120333333Y-63492914D02*
X120238095Y-63540533D01*
D10*
X134916666Y-90678490D02*
X134892857Y-90702300D01*
X134892857Y-90702300D02*
X134821428Y-90726109D01*
X134821428Y-90726109D02*
X134773809Y-90726109D01*
X134773809Y-90726109D02*
X134702381Y-90702300D01*
X134702381Y-90702300D02*
X134654762Y-90654680D01*
X134654762Y-90654680D02*
X134630952Y-90607061D01*
X134630952Y-90607061D02*
X134607143Y-90511823D01*
X134607143Y-90511823D02*
X134607143Y-90440395D01*
X134607143Y-90440395D02*
X134630952Y-90345157D01*
X134630952Y-90345157D02*
X134654762Y-90297538D01*
X134654762Y-90297538D02*
X134702381Y-90249919D01*
X134702381Y-90249919D02*
X134773809Y-90226109D01*
X134773809Y-90226109D02*
X134821428Y-90226109D01*
X134821428Y-90226109D02*
X134892857Y-90249919D01*
X134892857Y-90249919D02*
X134916666Y-90273728D01*
X135369047Y-90226109D02*
X135130952Y-90226109D01*
X135130952Y-90226109D02*
X135107143Y-90464204D01*
X135107143Y-90464204D02*
X135130952Y-90440395D01*
X135130952Y-90440395D02*
X135178571Y-90416585D01*
X135178571Y-90416585D02*
X135297619Y-90416585D01*
X135297619Y-90416585D02*
X135345238Y-90440395D01*
X135345238Y-90440395D02*
X135369047Y-90464204D01*
X135369047Y-90464204D02*
X135392857Y-90511823D01*
X135392857Y-90511823D02*
X135392857Y-90630871D01*
X135392857Y-90630871D02*
X135369047Y-90678490D01*
X135369047Y-90678490D02*
X135345238Y-90702300D01*
X135345238Y-90702300D02*
X135297619Y-90726109D01*
X135297619Y-90726109D02*
X135178571Y-90726109D01*
X135178571Y-90726109D02*
X135130952Y-90702300D01*
X135130952Y-90702300D02*
X135107143Y-90678490D01*
X141416666Y-90726109D02*
X141250000Y-90488014D01*
X141130952Y-90726109D02*
X141130952Y-90226109D01*
X141130952Y-90226109D02*
X141321428Y-90226109D01*
X141321428Y-90226109D02*
X141369047Y-90249919D01*
X141369047Y-90249919D02*
X141392857Y-90273728D01*
X141392857Y-90273728D02*
X141416666Y-90321347D01*
X141416666Y-90321347D02*
X141416666Y-90392776D01*
X141416666Y-90392776D02*
X141392857Y-90440395D01*
X141392857Y-90440395D02*
X141369047Y-90464204D01*
X141369047Y-90464204D02*
X141321428Y-90488014D01*
X141321428Y-90488014D02*
X141130952Y-90488014D01*
X141845238Y-90392776D02*
X141845238Y-90726109D01*
X141726190Y-90202300D02*
X141607143Y-90559442D01*
X141607143Y-90559442D02*
X141916666Y-90559442D01*
D13*
X128416666Y-82677190D02*
X128392857Y-82701000D01*
X128392857Y-82701000D02*
X128321428Y-82724809D01*
X128321428Y-82724809D02*
X128273809Y-82724809D01*
X128273809Y-82724809D02*
X128202381Y-82701000D01*
X128202381Y-82701000D02*
X128154762Y-82653380D01*
X128154762Y-82653380D02*
X128130952Y-82605761D01*
X128130952Y-82605761D02*
X128107143Y-82510523D01*
X128107143Y-82510523D02*
X128107143Y-82439095D01*
X128107143Y-82439095D02*
X128130952Y-82343857D01*
X128130952Y-82343857D02*
X128154762Y-82296238D01*
X128154762Y-82296238D02*
X128202381Y-82248619D01*
X128202381Y-82248619D02*
X128273809Y-82224809D01*
X128273809Y-82224809D02*
X128321428Y-82224809D01*
X128321428Y-82224809D02*
X128392857Y-82248619D01*
X128392857Y-82248619D02*
X128416666Y-82272428D01*
X128845238Y-82391476D02*
X128845238Y-82724809D01*
X128726190Y-82201000D02*
X128607143Y-82558142D01*
X128607143Y-82558142D02*
X128916666Y-82558142D01*
D10*
X127916666Y-90178490D02*
X127892857Y-90202300D01*
X127892857Y-90202300D02*
X127821428Y-90226109D01*
X127821428Y-90226109D02*
X127773809Y-90226109D01*
X127773809Y-90226109D02*
X127702381Y-90202300D01*
X127702381Y-90202300D02*
X127654762Y-90154680D01*
X127654762Y-90154680D02*
X127630952Y-90107061D01*
X127630952Y-90107061D02*
X127607143Y-90011823D01*
X127607143Y-90011823D02*
X127607143Y-89940395D01*
X127607143Y-89940395D02*
X127630952Y-89845157D01*
X127630952Y-89845157D02*
X127654762Y-89797538D01*
X127654762Y-89797538D02*
X127702381Y-89749919D01*
X127702381Y-89749919D02*
X127773809Y-89726109D01*
X127773809Y-89726109D02*
X127821428Y-89726109D01*
X127821428Y-89726109D02*
X127892857Y-89749919D01*
X127892857Y-89749919D02*
X127916666Y-89773728D01*
X128083333Y-89726109D02*
X128416666Y-89726109D01*
X128416666Y-89726109D02*
X128202381Y-90226109D01*
X138833333Y-72226109D02*
X138833333Y-72583252D01*
X138833333Y-72583252D02*
X138809524Y-72654680D01*
X138809524Y-72654680D02*
X138761905Y-72702300D01*
X138761905Y-72702300D02*
X138690476Y-72726109D01*
X138690476Y-72726109D02*
X138642857Y-72726109D01*
X139047619Y-72273728D02*
X139071428Y-72249919D01*
X139071428Y-72249919D02*
X139119047Y-72226109D01*
X139119047Y-72226109D02*
X139238095Y-72226109D01*
X139238095Y-72226109D02*
X139285714Y-72249919D01*
X139285714Y-72249919D02*
X139309523Y-72273728D01*
X139309523Y-72273728D02*
X139333333Y-72321347D01*
X139333333Y-72321347D02*
X139333333Y-72368966D01*
X139333333Y-72368966D02*
X139309523Y-72440395D01*
X139309523Y-72440395D02*
X139023809Y-72726109D01*
X139023809Y-72726109D02*
X139333333Y-72726109D01*
X155416666Y-93226109D02*
X155250000Y-92988014D01*
X155130952Y-93226109D02*
X155130952Y-92726109D01*
X155130952Y-92726109D02*
X155321428Y-92726109D01*
X155321428Y-92726109D02*
X155369047Y-92749919D01*
X155369047Y-92749919D02*
X155392857Y-92773728D01*
X155392857Y-92773728D02*
X155416666Y-92821347D01*
X155416666Y-92821347D02*
X155416666Y-92892776D01*
X155416666Y-92892776D02*
X155392857Y-92940395D01*
X155392857Y-92940395D02*
X155369047Y-92964204D01*
X155369047Y-92964204D02*
X155321428Y-92988014D01*
X155321428Y-92988014D02*
X155130952Y-92988014D01*
X155583333Y-92726109D02*
X155892857Y-92726109D01*
X155892857Y-92726109D02*
X155726190Y-92916585D01*
X155726190Y-92916585D02*
X155797619Y-92916585D01*
X155797619Y-92916585D02*
X155845238Y-92940395D01*
X155845238Y-92940395D02*
X155869047Y-92964204D01*
X155869047Y-92964204D02*
X155892857Y-93011823D01*
X155892857Y-93011823D02*
X155892857Y-93130871D01*
X155892857Y-93130871D02*
X155869047Y-93178490D01*
X155869047Y-93178490D02*
X155845238Y-93202300D01*
X155845238Y-93202300D02*
X155797619Y-93226109D01*
X155797619Y-93226109D02*
X155654762Y-93226109D01*
X155654762Y-93226109D02*
X155607143Y-93202300D01*
X155607143Y-93202300D02*
X155583333Y-93178490D01*
D13*
X126416666Y-82657190D02*
X126392857Y-82681000D01*
X126392857Y-82681000D02*
X126321428Y-82704809D01*
X126321428Y-82704809D02*
X126273809Y-82704809D01*
X126273809Y-82704809D02*
X126202381Y-82681000D01*
X126202381Y-82681000D02*
X126154762Y-82633380D01*
X126154762Y-82633380D02*
X126130952Y-82585761D01*
X126130952Y-82585761D02*
X126107143Y-82490523D01*
X126107143Y-82490523D02*
X126107143Y-82419095D01*
X126107143Y-82419095D02*
X126130952Y-82323857D01*
X126130952Y-82323857D02*
X126154762Y-82276238D01*
X126154762Y-82276238D02*
X126202381Y-82228619D01*
X126202381Y-82228619D02*
X126273809Y-82204809D01*
X126273809Y-82204809D02*
X126321428Y-82204809D01*
X126321428Y-82204809D02*
X126392857Y-82228619D01*
X126392857Y-82228619D02*
X126416666Y-82252428D01*
X126583333Y-82204809D02*
X126892857Y-82204809D01*
X126892857Y-82204809D02*
X126726190Y-82395285D01*
X126726190Y-82395285D02*
X126797619Y-82395285D01*
X126797619Y-82395285D02*
X126845238Y-82419095D01*
X126845238Y-82419095D02*
X126869047Y-82442904D01*
X126869047Y-82442904D02*
X126892857Y-82490523D01*
X126892857Y-82490523D02*
X126892857Y-82609571D01*
X126892857Y-82609571D02*
X126869047Y-82657190D01*
X126869047Y-82657190D02*
X126845238Y-82681000D01*
X126845238Y-82681000D02*
X126797619Y-82704809D01*
X126797619Y-82704809D02*
X126654762Y-82704809D01*
X126654762Y-82704809D02*
X126607143Y-82681000D01*
X126607143Y-82681000D02*
X126583333Y-82657190D01*
D10*
X154226109Y-94380952D02*
X154630871Y-94380952D01*
X154630871Y-94380952D02*
X154678490Y-94357142D01*
X154678490Y-94357142D02*
X154702300Y-94333333D01*
X154702300Y-94333333D02*
X154726109Y-94285714D01*
X154726109Y-94285714D02*
X154726109Y-94190476D01*
X154726109Y-94190476D02*
X154702300Y-94142857D01*
X154702300Y-94142857D02*
X154678490Y-94119047D01*
X154678490Y-94119047D02*
X154630871Y-94095238D01*
X154630871Y-94095238D02*
X154226109Y-94095238D01*
X154273728Y-93880951D02*
X154249919Y-93857142D01*
X154249919Y-93857142D02*
X154226109Y-93809523D01*
X154226109Y-93809523D02*
X154226109Y-93690475D01*
X154226109Y-93690475D02*
X154249919Y-93642856D01*
X154249919Y-93642856D02*
X154273728Y-93619047D01*
X154273728Y-93619047D02*
X154321347Y-93595237D01*
X154321347Y-93595237D02*
X154368966Y-93595237D01*
X154368966Y-93595237D02*
X154440395Y-93619047D01*
X154440395Y-93619047D02*
X154726109Y-93904761D01*
X154726109Y-93904761D02*
X154726109Y-93595237D01*
X122178571Y-83678490D02*
X122154762Y-83702300D01*
X122154762Y-83702300D02*
X122083333Y-83726109D01*
X122083333Y-83726109D02*
X122035714Y-83726109D01*
X122035714Y-83726109D02*
X121964286Y-83702300D01*
X121964286Y-83702300D02*
X121916667Y-83654680D01*
X121916667Y-83654680D02*
X121892857Y-83607061D01*
X121892857Y-83607061D02*
X121869048Y-83511823D01*
X121869048Y-83511823D02*
X121869048Y-83440395D01*
X121869048Y-83440395D02*
X121892857Y-83345157D01*
X121892857Y-83345157D02*
X121916667Y-83297538D01*
X121916667Y-83297538D02*
X121964286Y-83249919D01*
X121964286Y-83249919D02*
X122035714Y-83226109D01*
X122035714Y-83226109D02*
X122083333Y-83226109D01*
X122083333Y-83226109D02*
X122154762Y-83249919D01*
X122154762Y-83249919D02*
X122178571Y-83273728D01*
X122654762Y-83726109D02*
X122369048Y-83726109D01*
X122511905Y-83726109D02*
X122511905Y-83226109D01*
X122511905Y-83226109D02*
X122464286Y-83297538D01*
X122464286Y-83297538D02*
X122416667Y-83345157D01*
X122416667Y-83345157D02*
X122369048Y-83368966D01*
X123130952Y-83726109D02*
X122845238Y-83726109D01*
X122988095Y-83726109D02*
X122988095Y-83226109D01*
X122988095Y-83226109D02*
X122940476Y-83297538D01*
X122940476Y-83297538D02*
X122892857Y-83345157D01*
X122892857Y-83345157D02*
X122845238Y-83368966D01*
X133406666Y-90556109D02*
X133240000Y-90318014D01*
X133120952Y-90556109D02*
X133120952Y-90056109D01*
X133120952Y-90056109D02*
X133311428Y-90056109D01*
X133311428Y-90056109D02*
X133359047Y-90079919D01*
X133359047Y-90079919D02*
X133382857Y-90103728D01*
X133382857Y-90103728D02*
X133406666Y-90151347D01*
X133406666Y-90151347D02*
X133406666Y-90222776D01*
X133406666Y-90222776D02*
X133382857Y-90270395D01*
X133382857Y-90270395D02*
X133359047Y-90294204D01*
X133359047Y-90294204D02*
X133311428Y-90318014D01*
X133311428Y-90318014D02*
X133120952Y-90318014D01*
X133859047Y-90056109D02*
X133620952Y-90056109D01*
X133620952Y-90056109D02*
X133597143Y-90294204D01*
X133597143Y-90294204D02*
X133620952Y-90270395D01*
X133620952Y-90270395D02*
X133668571Y-90246585D01*
X133668571Y-90246585D02*
X133787619Y-90246585D01*
X133787619Y-90246585D02*
X133835238Y-90270395D01*
X133835238Y-90270395D02*
X133859047Y-90294204D01*
X133859047Y-90294204D02*
X133882857Y-90341823D01*
X133882857Y-90341823D02*
X133882857Y-90460871D01*
X133882857Y-90460871D02*
X133859047Y-90508490D01*
X133859047Y-90508490D02*
X133835238Y-90532300D01*
X133835238Y-90532300D02*
X133787619Y-90556109D01*
X133787619Y-90556109D02*
X133668571Y-90556109D01*
X133668571Y-90556109D02*
X133620952Y-90532300D01*
X133620952Y-90532300D02*
X133597143Y-90508490D01*
X152678490Y-91321428D02*
X152702300Y-91345237D01*
X152702300Y-91345237D02*
X152726109Y-91416666D01*
X152726109Y-91416666D02*
X152726109Y-91464285D01*
X152726109Y-91464285D02*
X152702300Y-91535713D01*
X152702300Y-91535713D02*
X152654680Y-91583332D01*
X152654680Y-91583332D02*
X152607061Y-91607142D01*
X152607061Y-91607142D02*
X152511823Y-91630951D01*
X152511823Y-91630951D02*
X152440395Y-91630951D01*
X152440395Y-91630951D02*
X152345157Y-91607142D01*
X152345157Y-91607142D02*
X152297538Y-91583332D01*
X152297538Y-91583332D02*
X152249919Y-91535713D01*
X152249919Y-91535713D02*
X152226109Y-91464285D01*
X152226109Y-91464285D02*
X152226109Y-91416666D01*
X152226109Y-91416666D02*
X152249919Y-91345237D01*
X152249919Y-91345237D02*
X152273728Y-91321428D01*
X152726109Y-90845237D02*
X152726109Y-91130951D01*
X152726109Y-90988094D02*
X152226109Y-90988094D01*
X152226109Y-90988094D02*
X152297538Y-91035713D01*
X152297538Y-91035713D02*
X152345157Y-91083332D01*
X152345157Y-91083332D02*
X152368966Y-91130951D01*
X152226109Y-90678571D02*
X152226109Y-90369047D01*
X152226109Y-90369047D02*
X152416585Y-90535714D01*
X152416585Y-90535714D02*
X152416585Y-90464285D01*
X152416585Y-90464285D02*
X152440395Y-90416666D01*
X152440395Y-90416666D02*
X152464204Y-90392857D01*
X152464204Y-90392857D02*
X152511823Y-90369047D01*
X152511823Y-90369047D02*
X152630871Y-90369047D01*
X152630871Y-90369047D02*
X152678490Y-90392857D01*
X152678490Y-90392857D02*
X152702300Y-90416666D01*
X152702300Y-90416666D02*
X152726109Y-90464285D01*
X152726109Y-90464285D02*
X152726109Y-90607142D01*
X152726109Y-90607142D02*
X152702300Y-90654761D01*
X152702300Y-90654761D02*
X152678490Y-90678571D01*
X123936666Y-80678490D02*
X123912857Y-80702300D01*
X123912857Y-80702300D02*
X123841428Y-80726109D01*
X123841428Y-80726109D02*
X123793809Y-80726109D01*
X123793809Y-80726109D02*
X123722381Y-80702300D01*
X123722381Y-80702300D02*
X123674762Y-80654680D01*
X123674762Y-80654680D02*
X123650952Y-80607061D01*
X123650952Y-80607061D02*
X123627143Y-80511823D01*
X123627143Y-80511823D02*
X123627143Y-80440395D01*
X123627143Y-80440395D02*
X123650952Y-80345157D01*
X123650952Y-80345157D02*
X123674762Y-80297538D01*
X123674762Y-80297538D02*
X123722381Y-80249919D01*
X123722381Y-80249919D02*
X123793809Y-80226109D01*
X123793809Y-80226109D02*
X123841428Y-80226109D01*
X123841428Y-80226109D02*
X123912857Y-80249919D01*
X123912857Y-80249919D02*
X123936666Y-80273728D01*
X124174762Y-80726109D02*
X124270000Y-80726109D01*
X124270000Y-80726109D02*
X124317619Y-80702300D01*
X124317619Y-80702300D02*
X124341428Y-80678490D01*
X124341428Y-80678490D02*
X124389047Y-80607061D01*
X124389047Y-80607061D02*
X124412857Y-80511823D01*
X124412857Y-80511823D02*
X124412857Y-80321347D01*
X124412857Y-80321347D02*
X124389047Y-80273728D01*
X124389047Y-80273728D02*
X124365238Y-80249919D01*
X124365238Y-80249919D02*
X124317619Y-80226109D01*
X124317619Y-80226109D02*
X124222381Y-80226109D01*
X124222381Y-80226109D02*
X124174762Y-80249919D01*
X124174762Y-80249919D02*
X124150952Y-80273728D01*
X124150952Y-80273728D02*
X124127143Y-80321347D01*
X124127143Y-80321347D02*
X124127143Y-80440395D01*
X124127143Y-80440395D02*
X124150952Y-80488014D01*
X124150952Y-80488014D02*
X124174762Y-80511823D01*
X124174762Y-80511823D02*
X124222381Y-80535633D01*
X124222381Y-80535633D02*
X124317619Y-80535633D01*
X124317619Y-80535633D02*
X124365238Y-80511823D01*
X124365238Y-80511823D02*
X124389047Y-80488014D01*
X124389047Y-80488014D02*
X124412857Y-80440395D01*
X127916666Y-91678490D02*
X127892857Y-91702300D01*
X127892857Y-91702300D02*
X127821428Y-91726109D01*
X127821428Y-91726109D02*
X127773809Y-91726109D01*
X127773809Y-91726109D02*
X127702381Y-91702300D01*
X127702381Y-91702300D02*
X127654762Y-91654680D01*
X127654762Y-91654680D02*
X127630952Y-91607061D01*
X127630952Y-91607061D02*
X127607143Y-91511823D01*
X127607143Y-91511823D02*
X127607143Y-91440395D01*
X127607143Y-91440395D02*
X127630952Y-91345157D01*
X127630952Y-91345157D02*
X127654762Y-91297538D01*
X127654762Y-91297538D02*
X127702381Y-91249919D01*
X127702381Y-91249919D02*
X127773809Y-91226109D01*
X127773809Y-91226109D02*
X127821428Y-91226109D01*
X127821428Y-91226109D02*
X127892857Y-91249919D01*
X127892857Y-91249919D02*
X127916666Y-91273728D01*
X128345238Y-91226109D02*
X128250000Y-91226109D01*
X128250000Y-91226109D02*
X128202381Y-91249919D01*
X128202381Y-91249919D02*
X128178571Y-91273728D01*
X128178571Y-91273728D02*
X128130952Y-91345157D01*
X128130952Y-91345157D02*
X128107143Y-91440395D01*
X128107143Y-91440395D02*
X128107143Y-91630871D01*
X128107143Y-91630871D02*
X128130952Y-91678490D01*
X128130952Y-91678490D02*
X128154762Y-91702300D01*
X128154762Y-91702300D02*
X128202381Y-91726109D01*
X128202381Y-91726109D02*
X128297619Y-91726109D01*
X128297619Y-91726109D02*
X128345238Y-91702300D01*
X128345238Y-91702300D02*
X128369047Y-91678490D01*
X128369047Y-91678490D02*
X128392857Y-91630871D01*
X128392857Y-91630871D02*
X128392857Y-91511823D01*
X128392857Y-91511823D02*
X128369047Y-91464204D01*
X128369047Y-91464204D02*
X128345238Y-91440395D01*
X128345238Y-91440395D02*
X128297619Y-91416585D01*
X128297619Y-91416585D02*
X128202381Y-91416585D01*
X128202381Y-91416585D02*
X128154762Y-91440395D01*
X128154762Y-91440395D02*
X128130952Y-91464204D01*
X128130952Y-91464204D02*
X128107143Y-91511823D01*
X140333333Y-72226109D02*
X140333333Y-72583252D01*
X140333333Y-72583252D02*
X140309524Y-72654680D01*
X140309524Y-72654680D02*
X140261905Y-72702300D01*
X140261905Y-72702300D02*
X140190476Y-72726109D01*
X140190476Y-72726109D02*
X140142857Y-72726109D01*
X140523809Y-72226109D02*
X140833333Y-72226109D01*
X140833333Y-72226109D02*
X140666666Y-72416585D01*
X140666666Y-72416585D02*
X140738095Y-72416585D01*
X140738095Y-72416585D02*
X140785714Y-72440395D01*
X140785714Y-72440395D02*
X140809523Y-72464204D01*
X140809523Y-72464204D02*
X140833333Y-72511823D01*
X140833333Y-72511823D02*
X140833333Y-72630871D01*
X140833333Y-72630871D02*
X140809523Y-72678490D01*
X140809523Y-72678490D02*
X140785714Y-72702300D01*
X140785714Y-72702300D02*
X140738095Y-72726109D01*
X140738095Y-72726109D02*
X140595238Y-72726109D01*
X140595238Y-72726109D02*
X140547619Y-72702300D01*
X140547619Y-72702300D02*
X140523809Y-72678490D01*
X123083334Y-90176704D02*
X122916667Y-90176704D01*
X122916667Y-90438609D02*
X122916667Y-89938609D01*
X122916667Y-89938609D02*
X123154762Y-89938609D01*
X123511905Y-90176704D02*
X123583333Y-90200514D01*
X123583333Y-90200514D02*
X123607143Y-90224323D01*
X123607143Y-90224323D02*
X123630952Y-90271942D01*
X123630952Y-90271942D02*
X123630952Y-90343371D01*
X123630952Y-90343371D02*
X123607143Y-90390990D01*
X123607143Y-90390990D02*
X123583333Y-90414800D01*
X123583333Y-90414800D02*
X123535714Y-90438609D01*
X123535714Y-90438609D02*
X123345238Y-90438609D01*
X123345238Y-90438609D02*
X123345238Y-89938609D01*
X123345238Y-89938609D02*
X123511905Y-89938609D01*
X123511905Y-89938609D02*
X123559524Y-89962419D01*
X123559524Y-89962419D02*
X123583333Y-89986228D01*
X123583333Y-89986228D02*
X123607143Y-90033847D01*
X123607143Y-90033847D02*
X123607143Y-90081466D01*
X123607143Y-90081466D02*
X123583333Y-90129085D01*
X123583333Y-90129085D02*
X123559524Y-90152895D01*
X123559524Y-90152895D02*
X123511905Y-90176704D01*
X123511905Y-90176704D02*
X123345238Y-90176704D01*
X124107143Y-90438609D02*
X123821429Y-90438609D01*
X123964286Y-90438609D02*
X123964286Y-89938609D01*
X123964286Y-89938609D02*
X123916667Y-90010038D01*
X123916667Y-90010038D02*
X123869048Y-90057657D01*
X123869048Y-90057657D02*
X123821429Y-90081466D01*
X127406666Y-75556109D02*
X127240000Y-75318014D01*
X127120952Y-75556109D02*
X127120952Y-75056109D01*
X127120952Y-75056109D02*
X127311428Y-75056109D01*
X127311428Y-75056109D02*
X127359047Y-75079919D01*
X127359047Y-75079919D02*
X127382857Y-75103728D01*
X127382857Y-75103728D02*
X127406666Y-75151347D01*
X127406666Y-75151347D02*
X127406666Y-75222776D01*
X127406666Y-75222776D02*
X127382857Y-75270395D01*
X127382857Y-75270395D02*
X127359047Y-75294204D01*
X127359047Y-75294204D02*
X127311428Y-75318014D01*
X127311428Y-75318014D02*
X127120952Y-75318014D01*
X127882857Y-75556109D02*
X127597143Y-75556109D01*
X127740000Y-75556109D02*
X127740000Y-75056109D01*
X127740000Y-75056109D02*
X127692381Y-75127538D01*
X127692381Y-75127538D02*
X127644762Y-75175157D01*
X127644762Y-75175157D02*
X127597143Y-75198966D01*
X124761905Y-82488014D02*
X124761905Y-82726109D01*
X124595239Y-82226109D02*
X124761905Y-82488014D01*
X124761905Y-82488014D02*
X124928572Y-82226109D01*
X125357143Y-82726109D02*
X125071429Y-82726109D01*
X125214286Y-82726109D02*
X125214286Y-82226109D01*
X125214286Y-82226109D02*
X125166667Y-82297538D01*
X125166667Y-82297538D02*
X125119048Y-82345157D01*
X125119048Y-82345157D02*
X125071429Y-82368966D01*
X140916666Y-82678490D02*
X140892857Y-82702300D01*
X140892857Y-82702300D02*
X140821428Y-82726109D01*
X140821428Y-82726109D02*
X140773809Y-82726109D01*
X140773809Y-82726109D02*
X140702381Y-82702300D01*
X140702381Y-82702300D02*
X140654762Y-82654680D01*
X140654762Y-82654680D02*
X140630952Y-82607061D01*
X140630952Y-82607061D02*
X140607143Y-82511823D01*
X140607143Y-82511823D02*
X140607143Y-82440395D01*
X140607143Y-82440395D02*
X140630952Y-82345157D01*
X140630952Y-82345157D02*
X140654762Y-82297538D01*
X140654762Y-82297538D02*
X140702381Y-82249919D01*
X140702381Y-82249919D02*
X140773809Y-82226109D01*
X140773809Y-82226109D02*
X140821428Y-82226109D01*
X140821428Y-82226109D02*
X140892857Y-82249919D01*
X140892857Y-82249919D02*
X140916666Y-82273728D01*
X141392857Y-82726109D02*
X141107143Y-82726109D01*
X141250000Y-82726109D02*
X141250000Y-82226109D01*
X141250000Y-82226109D02*
X141202381Y-82297538D01*
X141202381Y-82297538D02*
X141154762Y-82345157D01*
X141154762Y-82345157D02*
X141107143Y-82368966D01*
D12*
X143333333Y-84464819D02*
X143000000Y-83988628D01*
X142761905Y-84464819D02*
X142761905Y-83464819D01*
X142761905Y-83464819D02*
X143142857Y-83464819D01*
X143142857Y-83464819D02*
X143238095Y-83512438D01*
X143238095Y-83512438D02*
X143285714Y-83560057D01*
X143285714Y-83560057D02*
X143333333Y-83655295D01*
X143333333Y-83655295D02*
X143333333Y-83798152D01*
X143333333Y-83798152D02*
X143285714Y-83893390D01*
X143285714Y-83893390D02*
X143238095Y-83941009D01*
X143238095Y-83941009D02*
X143142857Y-83988628D01*
X143142857Y-83988628D02*
X142761905Y-83988628D01*
X143714286Y-83560057D02*
X143761905Y-83512438D01*
X143761905Y-83512438D02*
X143857143Y-83464819D01*
X143857143Y-83464819D02*
X144095238Y-83464819D01*
X144095238Y-83464819D02*
X144190476Y-83512438D01*
X144190476Y-83512438D02*
X144238095Y-83560057D01*
X144238095Y-83560057D02*
X144285714Y-83655295D01*
X144285714Y-83655295D02*
X144285714Y-83750533D01*
X144285714Y-83750533D02*
X144238095Y-83893390D01*
X144238095Y-83893390D02*
X143666667Y-84464819D01*
X143666667Y-84464819D02*
X144285714Y-84464819D01*
D10*
X132436666Y-76018490D02*
X132412857Y-76042300D01*
X132412857Y-76042300D02*
X132341428Y-76066109D01*
X132341428Y-76066109D02*
X132293809Y-76066109D01*
X132293809Y-76066109D02*
X132222381Y-76042300D01*
X132222381Y-76042300D02*
X132174762Y-75994680D01*
X132174762Y-75994680D02*
X132150952Y-75947061D01*
X132150952Y-75947061D02*
X132127143Y-75851823D01*
X132127143Y-75851823D02*
X132127143Y-75780395D01*
X132127143Y-75780395D02*
X132150952Y-75685157D01*
X132150952Y-75685157D02*
X132174762Y-75637538D01*
X132174762Y-75637538D02*
X132222381Y-75589919D01*
X132222381Y-75589919D02*
X132293809Y-75566109D01*
X132293809Y-75566109D02*
X132341428Y-75566109D01*
X132341428Y-75566109D02*
X132412857Y-75589919D01*
X132412857Y-75589919D02*
X132436666Y-75613728D01*
X132627143Y-75613728D02*
X132650952Y-75589919D01*
X132650952Y-75589919D02*
X132698571Y-75566109D01*
X132698571Y-75566109D02*
X132817619Y-75566109D01*
X132817619Y-75566109D02*
X132865238Y-75589919D01*
X132865238Y-75589919D02*
X132889047Y-75613728D01*
X132889047Y-75613728D02*
X132912857Y-75661347D01*
X132912857Y-75661347D02*
X132912857Y-75708966D01*
X132912857Y-75708966D02*
X132889047Y-75780395D01*
X132889047Y-75780395D02*
X132603333Y-76066109D01*
X132603333Y-76066109D02*
X132912857Y-76066109D01*
X152296109Y-97656547D02*
X151796109Y-97656547D01*
X151796109Y-97656547D02*
X151796109Y-97537499D01*
X151796109Y-97537499D02*
X151819919Y-97466071D01*
X151819919Y-97466071D02*
X151867538Y-97418452D01*
X151867538Y-97418452D02*
X151915157Y-97394642D01*
X151915157Y-97394642D02*
X152010395Y-97370833D01*
X152010395Y-97370833D02*
X152081823Y-97370833D01*
X152081823Y-97370833D02*
X152177061Y-97394642D01*
X152177061Y-97394642D02*
X152224680Y-97418452D01*
X152224680Y-97418452D02*
X152272300Y-97466071D01*
X152272300Y-97466071D02*
X152296109Y-97537499D01*
X152296109Y-97537499D02*
X152296109Y-97656547D01*
X152296109Y-96894642D02*
X152296109Y-97180356D01*
X152296109Y-97037499D02*
X151796109Y-97037499D01*
X151796109Y-97037499D02*
X151867538Y-97085118D01*
X151867538Y-97085118D02*
X151915157Y-97132737D01*
X151915157Y-97132737D02*
X151938966Y-97180356D01*
X127678571Y-83678490D02*
X127654762Y-83702300D01*
X127654762Y-83702300D02*
X127583333Y-83726109D01*
X127583333Y-83726109D02*
X127535714Y-83726109D01*
X127535714Y-83726109D02*
X127464286Y-83702300D01*
X127464286Y-83702300D02*
X127416667Y-83654680D01*
X127416667Y-83654680D02*
X127392857Y-83607061D01*
X127392857Y-83607061D02*
X127369048Y-83511823D01*
X127369048Y-83511823D02*
X127369048Y-83440395D01*
X127369048Y-83440395D02*
X127392857Y-83345157D01*
X127392857Y-83345157D02*
X127416667Y-83297538D01*
X127416667Y-83297538D02*
X127464286Y-83249919D01*
X127464286Y-83249919D02*
X127535714Y-83226109D01*
X127535714Y-83226109D02*
X127583333Y-83226109D01*
X127583333Y-83226109D02*
X127654762Y-83249919D01*
X127654762Y-83249919D02*
X127678571Y-83273728D01*
X128154762Y-83726109D02*
X127869048Y-83726109D01*
X128011905Y-83726109D02*
X128011905Y-83226109D01*
X128011905Y-83226109D02*
X127964286Y-83297538D01*
X127964286Y-83297538D02*
X127916667Y-83345157D01*
X127916667Y-83345157D02*
X127869048Y-83368966D01*
X128464285Y-83226109D02*
X128511904Y-83226109D01*
X128511904Y-83226109D02*
X128559523Y-83249919D01*
X128559523Y-83249919D02*
X128583333Y-83273728D01*
X128583333Y-83273728D02*
X128607142Y-83321347D01*
X128607142Y-83321347D02*
X128630952Y-83416585D01*
X128630952Y-83416585D02*
X128630952Y-83535633D01*
X128630952Y-83535633D02*
X128607142Y-83630871D01*
X128607142Y-83630871D02*
X128583333Y-83678490D01*
X128583333Y-83678490D02*
X128559523Y-83702300D01*
X128559523Y-83702300D02*
X128511904Y-83726109D01*
X128511904Y-83726109D02*
X128464285Y-83726109D01*
X128464285Y-83726109D02*
X128416666Y-83702300D01*
X128416666Y-83702300D02*
X128392857Y-83678490D01*
X128392857Y-83678490D02*
X128369047Y-83630871D01*
X128369047Y-83630871D02*
X128345238Y-83535633D01*
X128345238Y-83535633D02*
X128345238Y-83416585D01*
X128345238Y-83416585D02*
X128369047Y-83321347D01*
X128369047Y-83321347D02*
X128392857Y-83273728D01*
X128392857Y-83273728D02*
X128416666Y-83249919D01*
X128416666Y-83249919D02*
X128464285Y-83226109D01*
X127916666Y-88678490D02*
X127892857Y-88702300D01*
X127892857Y-88702300D02*
X127821428Y-88726109D01*
X127821428Y-88726109D02*
X127773809Y-88726109D01*
X127773809Y-88726109D02*
X127702381Y-88702300D01*
X127702381Y-88702300D02*
X127654762Y-88654680D01*
X127654762Y-88654680D02*
X127630952Y-88607061D01*
X127630952Y-88607061D02*
X127607143Y-88511823D01*
X127607143Y-88511823D02*
X127607143Y-88440395D01*
X127607143Y-88440395D02*
X127630952Y-88345157D01*
X127630952Y-88345157D02*
X127654762Y-88297538D01*
X127654762Y-88297538D02*
X127702381Y-88249919D01*
X127702381Y-88249919D02*
X127773809Y-88226109D01*
X127773809Y-88226109D02*
X127821428Y-88226109D01*
X127821428Y-88226109D02*
X127892857Y-88249919D01*
X127892857Y-88249919D02*
X127916666Y-88273728D01*
X128202381Y-88440395D02*
X128154762Y-88416585D01*
X128154762Y-88416585D02*
X128130952Y-88392776D01*
X128130952Y-88392776D02*
X128107143Y-88345157D01*
X128107143Y-88345157D02*
X128107143Y-88321347D01*
X128107143Y-88321347D02*
X128130952Y-88273728D01*
X128130952Y-88273728D02*
X128154762Y-88249919D01*
X128154762Y-88249919D02*
X128202381Y-88226109D01*
X128202381Y-88226109D02*
X128297619Y-88226109D01*
X128297619Y-88226109D02*
X128345238Y-88249919D01*
X128345238Y-88249919D02*
X128369047Y-88273728D01*
X128369047Y-88273728D02*
X128392857Y-88321347D01*
X128392857Y-88321347D02*
X128392857Y-88345157D01*
X128392857Y-88345157D02*
X128369047Y-88392776D01*
X128369047Y-88392776D02*
X128345238Y-88416585D01*
X128345238Y-88416585D02*
X128297619Y-88440395D01*
X128297619Y-88440395D02*
X128202381Y-88440395D01*
X128202381Y-88440395D02*
X128154762Y-88464204D01*
X128154762Y-88464204D02*
X128130952Y-88488014D01*
X128130952Y-88488014D02*
X128107143Y-88535633D01*
X128107143Y-88535633D02*
X128107143Y-88630871D01*
X128107143Y-88630871D02*
X128130952Y-88678490D01*
X128130952Y-88678490D02*
X128154762Y-88702300D01*
X128154762Y-88702300D02*
X128202381Y-88726109D01*
X128202381Y-88726109D02*
X128297619Y-88726109D01*
X128297619Y-88726109D02*
X128345238Y-88702300D01*
X128345238Y-88702300D02*
X128369047Y-88678490D01*
X128369047Y-88678490D02*
X128392857Y-88630871D01*
X128392857Y-88630871D02*
X128392857Y-88535633D01*
X128392857Y-88535633D02*
X128369047Y-88488014D01*
X128369047Y-88488014D02*
X128345238Y-88464204D01*
X128345238Y-88464204D02*
X128297619Y-88440395D01*
D12*
X136586666Y-93954819D02*
X136586666Y-94669104D01*
X136586666Y-94669104D02*
X136539047Y-94811961D01*
X136539047Y-94811961D02*
X136443809Y-94907200D01*
X136443809Y-94907200D02*
X136300952Y-94954819D01*
X136300952Y-94954819D02*
X136205714Y-94954819D01*
X137491428Y-94288152D02*
X137491428Y-94954819D01*
X137253333Y-93907200D02*
X137015238Y-94621485D01*
X137015238Y-94621485D02*
X137634285Y-94621485D01*
D10*
X134456547Y-77126109D02*
X134456547Y-77530871D01*
X134456547Y-77530871D02*
X134480357Y-77578490D01*
X134480357Y-77578490D02*
X134504166Y-77602300D01*
X134504166Y-77602300D02*
X134551785Y-77626109D01*
X134551785Y-77626109D02*
X134647023Y-77626109D01*
X134647023Y-77626109D02*
X134694642Y-77602300D01*
X134694642Y-77602300D02*
X134718452Y-77578490D01*
X134718452Y-77578490D02*
X134742261Y-77530871D01*
X134742261Y-77530871D02*
X134742261Y-77126109D01*
X135242262Y-77626109D02*
X134956548Y-77626109D01*
X135099405Y-77626109D02*
X135099405Y-77126109D01*
X135099405Y-77126109D02*
X135051786Y-77197538D01*
X135051786Y-77197538D02*
X135004167Y-77245157D01*
X135004167Y-77245157D02*
X134956548Y-77268966D01*
D12*
X155754819Y-82958333D02*
X156469104Y-82958333D01*
X156469104Y-82958333D02*
X156611961Y-83005952D01*
X156611961Y-83005952D02*
X156707200Y-83101190D01*
X156707200Y-83101190D02*
X156754819Y-83244047D01*
X156754819Y-83244047D02*
X156754819Y-83339285D01*
X156754819Y-81958333D02*
X156754819Y-82529761D01*
X156754819Y-82244047D02*
X155754819Y-82244047D01*
X155754819Y-82244047D02*
X155897676Y-82339285D01*
X155897676Y-82339285D02*
X155992914Y-82434523D01*
X155992914Y-82434523D02*
X156040533Y-82529761D01*
D10*
X145728571Y-88498490D02*
X145704762Y-88522300D01*
X145704762Y-88522300D02*
X145633333Y-88546109D01*
X145633333Y-88546109D02*
X145585714Y-88546109D01*
X145585714Y-88546109D02*
X145514286Y-88522300D01*
X145514286Y-88522300D02*
X145466667Y-88474680D01*
X145466667Y-88474680D02*
X145442857Y-88427061D01*
X145442857Y-88427061D02*
X145419048Y-88331823D01*
X145419048Y-88331823D02*
X145419048Y-88260395D01*
X145419048Y-88260395D02*
X145442857Y-88165157D01*
X145442857Y-88165157D02*
X145466667Y-88117538D01*
X145466667Y-88117538D02*
X145514286Y-88069919D01*
X145514286Y-88069919D02*
X145585714Y-88046109D01*
X145585714Y-88046109D02*
X145633333Y-88046109D01*
X145633333Y-88046109D02*
X145704762Y-88069919D01*
X145704762Y-88069919D02*
X145728571Y-88093728D01*
X146204762Y-88546109D02*
X145919048Y-88546109D01*
X146061905Y-88546109D02*
X146061905Y-88046109D01*
X146061905Y-88046109D02*
X146014286Y-88117538D01*
X146014286Y-88117538D02*
X145966667Y-88165157D01*
X145966667Y-88165157D02*
X145919048Y-88188966D01*
X146395238Y-88093728D02*
X146419047Y-88069919D01*
X146419047Y-88069919D02*
X146466666Y-88046109D01*
X146466666Y-88046109D02*
X146585714Y-88046109D01*
X146585714Y-88046109D02*
X146633333Y-88069919D01*
X146633333Y-88069919D02*
X146657142Y-88093728D01*
X146657142Y-88093728D02*
X146680952Y-88141347D01*
X146680952Y-88141347D02*
X146680952Y-88188966D01*
X146680952Y-88188966D02*
X146657142Y-88260395D01*
X146657142Y-88260395D02*
X146371428Y-88546109D01*
X146371428Y-88546109D02*
X146680952Y-88546109D01*
D14*
%TO.C,SW1*%
X117610000Y-79450000D02*
X118400000Y-79450000D01*
X119450000Y-77400000D02*
X119450000Y-77600000D01*
X119450000Y-74400000D02*
X119450000Y-76100000D01*
X116600000Y-73150000D02*
X116600000Y-78850000D01*
X118400000Y-72550000D02*
X117610000Y-72550000D01*
%TO.C,C5*%
X137415580Y-89990000D02*
X137134420Y-89990000D01*
X137415580Y-91010000D02*
X137134420Y-91010000D01*
%TO.C,R4*%
X140336359Y-91120000D02*
X140643641Y-91120000D01*
X140336359Y-91880000D02*
X140643641Y-91880000D01*
%TO.C,C4*%
X128140000Y-80912164D02*
X128140000Y-81127836D01*
X128860000Y-80912164D02*
X128860000Y-81127836D01*
%TO.C,C7*%
X129587836Y-90360000D02*
X129372164Y-90360000D01*
X129587836Y-89640000D02*
X129372164Y-89640000D01*
%TO.C,J2*%
X137830000Y-71170000D02*
X137830000Y-72500000D01*
X136500000Y-71170000D02*
X137830000Y-71170000D01*
X135230000Y-73830000D02*
X127550000Y-73830000D01*
X135230000Y-71170000D02*
X135230000Y-73830000D01*
X135230000Y-71170000D02*
X127550000Y-71170000D01*
X127550000Y-71170000D02*
X127550000Y-73830000D01*
%TO.C,R3*%
X155120000Y-94663641D02*
X155120000Y-94356359D01*
X155880000Y-94663641D02*
X155880000Y-94356359D01*
%TO.C,C3*%
X126140000Y-80892164D02*
X126140000Y-81107836D01*
X126860000Y-80892164D02*
X126860000Y-81107836D01*
%TO.C,U2*%
X144590000Y-94000000D02*
X144590000Y-97760000D01*
X144590000Y-97760000D02*
X145850000Y-97760000D01*
X151410000Y-94000000D02*
X151410000Y-97760000D01*
X151410000Y-97760000D02*
X150150000Y-97760000D01*
X151640000Y-92960000D02*
X151310000Y-92720000D01*
X151640000Y-92480000D01*
X151640000Y-92960000D01*
G36*
X151640000Y-92960000D02*
G01*
X151310000Y-92720000D01*
X151640000Y-92480000D01*
X151640000Y-92960000D01*
G37*
%TO.C,C11*%
X122140000Y-84912164D02*
X122140000Y-85127836D01*
X122860000Y-84912164D02*
X122860000Y-85127836D01*
%TO.C,R5*%
X133336359Y-91120000D02*
X133643641Y-91120000D01*
X133336359Y-91880000D02*
X133643641Y-91880000D01*
%TO.C,C13*%
X152265000Y-93711252D02*
X152265000Y-93188748D01*
X153735000Y-93711252D02*
X153735000Y-93188748D01*
%TO.C,C9*%
X123912164Y-81140000D02*
X124127836Y-81140000D01*
X123912164Y-81860000D02*
X124127836Y-81860000D01*
%TO.C,C6*%
X129587836Y-91860000D02*
X129372164Y-91860000D01*
X129587836Y-91140000D02*
X129372164Y-91140000D01*
%TO.C,J3*%
X141670000Y-71170000D02*
X141670000Y-73830000D01*
X149350000Y-71170000D02*
X141670000Y-71170000D01*
X149350000Y-71170000D02*
X149350000Y-73830000D01*
X149350000Y-73830000D02*
X141670000Y-73830000D01*
X150620000Y-71170000D02*
X151950000Y-71170000D01*
X151950000Y-71170000D02*
X151950000Y-72500000D01*
%TO.C,FB1*%
X124990000Y-90375279D02*
X124990000Y-90049721D01*
X126010000Y-90375279D02*
X126010000Y-90049721D01*
%TO.C,R1*%
X127336359Y-76120000D02*
X127643641Y-76120000D01*
X127336359Y-76880000D02*
X127643641Y-76880000D01*
%TO.C,Y1*%
X123500000Y-87100000D02*
X126800000Y-87100000D01*
X126800000Y-87100000D02*
X126800000Y-83100000D01*
%TO.C,C1*%
X140640000Y-80912164D02*
X140640000Y-81127836D01*
X141360000Y-80912164D02*
X141360000Y-81127836D01*
%TO.C,R2*%
X143880000Y-81846359D02*
X143880000Y-82153641D01*
X143120000Y-81846359D02*
X143120000Y-82153641D01*
%TO.C,C2*%
X132412164Y-76640000D02*
X132627836Y-76640000D01*
X132412164Y-77360000D02*
X132627836Y-77360000D01*
%TO.C,D1*%
X152765000Y-96487500D02*
X152765000Y-98772500D01*
X152765000Y-98772500D02*
X154235000Y-98772500D01*
X154235000Y-98772500D02*
X154235000Y-96487500D01*
%TO.C,C10*%
X127640000Y-85087836D02*
X127640000Y-84872164D01*
X128360000Y-85087836D02*
X128360000Y-84872164D01*
%TO.C,C8*%
X129587836Y-88860000D02*
X129372164Y-88860000D01*
X129587836Y-88140000D02*
X129372164Y-88140000D01*
%TO.C,J4*%
X129050000Y-98330000D02*
X129050000Y-97000000D01*
X130380000Y-98330000D02*
X129050000Y-98330000D01*
X131650000Y-95670000D02*
X139330000Y-95670000D01*
X131650000Y-98330000D02*
X131650000Y-95670000D01*
X131650000Y-98330000D02*
X139330000Y-98330000D01*
X139330000Y-98330000D02*
X139330000Y-95670000D01*
%TO.C,U1*%
X131227500Y-79640000D02*
X131227500Y-80090000D01*
X131227500Y-86860000D02*
X131227500Y-86410000D01*
X131677500Y-79640000D02*
X131227500Y-79640000D01*
X131677500Y-86860000D02*
X131227500Y-86860000D01*
X137997500Y-79640000D02*
X138447500Y-79640000D01*
X137997500Y-86860000D02*
X138447500Y-86860000D01*
X138447500Y-79640000D02*
X138447500Y-80090000D01*
X138447500Y-86860000D02*
X138447500Y-86410000D01*
X130637500Y-80090000D02*
X130297500Y-79620000D01*
X130977500Y-79620000D01*
X130637500Y-80090000D01*
G36*
X130637500Y-80090000D02*
G01*
X130297500Y-79620000D01*
X130977500Y-79620000D01*
X130637500Y-80090000D01*
G37*
D12*
%TO.C,J1*%
X156975000Y-83700000D02*
X156975000Y-84425000D01*
X156975000Y-84425000D02*
X157400000Y-84425000D01*
X157400000Y-80825000D02*
X157400000Y-79825000D01*
X157400000Y-84425000D02*
X157400000Y-85425000D01*
X159150000Y-86775000D02*
X160550000Y-86775000D01*
X160550000Y-78475000D02*
X159150000Y-78475000D01*
X162950000Y-86775000D02*
X163100000Y-86775000D01*
X163100000Y-78475000D02*
X162950000Y-78475000D01*
X163100000Y-78775000D02*
X163100000Y-78475000D01*
X163100000Y-86475000D02*
X163550000Y-86475000D01*
X163100000Y-86775000D02*
X163100000Y-86475000D01*
X163550000Y-78775000D02*
X163100000Y-78775000D01*
D14*
%TO.C,C12*%
X145788748Y-89265000D02*
X146311252Y-89265000D01*
X145788748Y-90735000D02*
X146311252Y-90735000D01*
%TD*%
M02*
