M48
; DRILL file {KiCad 8.0.5-8.0.5-0~ubuntu22.04.1} date 2024-10-15T17:58:00+0300
; FORMAT={-:-/ absolute / inch / decimal}
; #@! TF.CreationDate,2024-10-15T17:58:00+03:00
; #@! TF.GenerationSoftware,Kicad,Pcbnew,8.0.5-8.0.5-0~ubuntu22.04.1
; #@! TF.FileFunction,Plated,1,2,PTH
FMAT,2
INCH
; #@! TA.AperFunction,Plated,PTH,ViaDrill
T1C0.0118
; #@! TA.AperFunction,Plated,PTH,ComponentDrill
T2C0.0217
; #@! TA.AperFunction,Plated,PTH,ComponentDrill
T3C0.0335
; #@! TA.AperFunction,Plated,PTH,ComponentDrill
T4C0.0394
%
G90
G05
T1
X4.8031Y-2.9134
X4.8228Y-3.4055
X4.8425Y-3.248
X4.9213Y-3.1496
X4.9803Y-3.248
X4.9803Y-3.4646
X5.0197Y-3.1299
X5.0591Y-3.248
X5.0591Y-3.4055
X5.0787Y-3.6417
X5.0809Y-3.3136
X5.0954Y-3.4283
X5.0984Y-3.1299
X5.1378Y-2.9528
X5.1575Y-3.0709
X5.1772Y-2.9921
X5.2165Y-3.3071
X5.2165Y-3.5039
X5.2756Y-3.5039
X5.3574Y-3.6533
X5.374Y-3.622
X5.3937Y-2.9724
X5.4528Y-3.4646
X5.4528Y-3.5039
X5.5118Y-3.1299
X5.5315Y-2.9134
X5.5315Y-3.5039
X5.5709Y-3.6614
X5.5906Y-3.2087
X5.9252Y-3.5433
X6.1024Y-3.1693
T4
X5.074Y-2.8543
X5.1331Y-3.8189
X5.174Y-2.8543
X5.2331Y-3.8189
X5.274Y-2.8543
X5.3331Y-3.8189
X5.374Y-2.8543
X5.4331Y-3.8189
X5.6299Y-2.8543
X5.7299Y-2.8543
X5.8299Y-2.8543
X5.9299Y-2.8543
T2
G00X6.3553Y-3.1004
M15
G01X6.3809Y-3.1004
M16
G05
G00X6.3553Y-3.4055
M15
G01X6.3809Y-3.4055
M16
G05
T3
G00X6.2077Y-3.1063
M15
G01X6.2293Y-3.1063
M16
G05
G00X6.2077Y-3.3996
M15
G01X6.2293Y-3.3996
M16
G05
M30
